# Blender v2.90.0 OBJ File: 'crap.blend'
# www.blender.org
mtllib building03.mtl
o Cube.002_Cube.003
v 0.389397 0.800245 -0.051124
v -0.433913 0.800246 0.216390
v -0.206361 1.255361 -0.483968
v -0.091427 -0.001599 -0.500000
v 0.500000 -0.200000 0.500000
v -0.344290 -0.001599 -0.500000
v -0.500000 -0.200000 0.500000
v 0.445240 0.694369 -0.583549
v 0.445240 1.105631 -0.583549
v 0.467877 0.662147 -0.416450
v 0.467877 1.137853 -0.416450
v -0.445240 0.694369 -0.583550
v -0.445240 1.105631 -0.583550
v -0.467877 0.662147 -0.416451
v -0.467877 1.137853 -0.416451
v -0.091427 0.455557 -0.500000
v -0.344290 0.455557 -0.500000
v -0.500000 1.000000 -0.500000
v -0.500000 -0.200000 -0.500000
v 0.500000 -0.200000 -0.500000
v 0.500000 1.000000 -0.500000
v -0.344290 0.455557 -0.378674
v -0.344290 -0.001599 -0.378674
v -0.091427 -0.001599 -0.378674
v -0.091427 0.455557 -0.378674
v 0.467877 0.662147 -0.583549
v 0.467877 1.137853 -0.583549
v -0.467877 1.137853 -0.583550
v -0.467877 0.662147 -0.583550
v 0.445240 0.694369 -0.541771
v 0.445240 1.105631 -0.541771
v -0.445240 1.105631 -0.541771
v -0.445240 0.694369 -0.541771
v -0.002277 1.285859 -0.500000
v -0.184295 1.299493 -0.500000
v -0.500000 0.889629 0.168375
v -0.500000 0.850731 0.264404
v -0.433913 0.800246 0.500000
v -0.500000 0.850731 0.500000
v -0.043553 0.663176 0.500000
v 0.210329 0.635628 0.500000
v 0.500000 0.717917 0.500000
v 0.500000 0.800246 0.101106
v -0.500000 1.305402 -0.303424
v -0.500000 1.730489 -0.483973
v -0.500000 1.810300 -0.500000
v 0.500000 1.191890 -0.391531
v 0.500000 1.314634 -0.500000
v 0.500000 0.868601 -0.051124
v 0.500000 -0.200000 0.500000
v 0.500000 -0.200000 0.500000
v 0.500000 -0.200000 -0.500000
v 0.500000 -0.200000 -0.500000
v 0.500000 0.717917 0.500000
v 0.500000 0.717917 0.500000
v -0.500000 -0.200000 0.500000
v -0.500000 -0.200000 0.500000
v -0.500000 0.850731 0.500000
v -0.500000 0.850731 0.500000
v -0.500000 -0.200000 -0.500000
v -0.500000 -0.200000 -0.500000
v -0.500000 1.000000 -0.500000
v 0.467877 0.662147 -0.416450
v 0.467877 0.662147 -0.416450
v 0.467877 0.662147 -0.583549
v 0.467877 0.662147 -0.583549
v 0.467877 1.137853 -0.583549
v 0.467877 1.137853 -0.583549
v 0.467877 1.137853 -0.416450
v 0.467877 1.137853 -0.416450
v -0.467877 0.662147 -0.416451
v -0.467877 0.662147 -0.416451
v -0.467877 1.137853 -0.416451
v -0.467877 1.137853 -0.416451
v -0.467877 0.662147 -0.583550
v -0.467877 0.662147 -0.583550
v -0.467877 1.137853 -0.583550
v -0.467877 1.137853 -0.583550
v 0.500000 1.000000 -0.500000
v -0.500000 1.810300 -0.500000
v -0.500000 1.810300 -0.500000
v -0.344290 0.455557 -0.500000
v -0.344290 0.455557 -0.500000
v -0.344290 -0.001599 -0.500000
v -0.344290 -0.001599 -0.500000
v -0.091427 -0.001599 -0.500000
v -0.091427 -0.001599 -0.500000
v -0.091427 0.455557 -0.500000
v -0.091427 0.455557 -0.500000
v -0.344290 0.455557 -0.378674
v -0.344290 0.455557 -0.378674
v -0.344290 -0.001599 -0.378674
v -0.344290 -0.001599 -0.378674
v -0.091427 -0.001599 -0.378674
v -0.091427 -0.001599 -0.378674
v -0.091427 0.455557 -0.378674
v -0.091427 0.455557 -0.378674
v 0.445240 0.694369 -0.583549
v 0.445240 0.694369 -0.583549
v 0.445240 1.105631 -0.583549
v 0.445240 1.105631 -0.583549
v -0.445240 1.105631 -0.583550
v -0.445240 1.105631 -0.583550
v -0.445240 0.694369 -0.583550
v -0.445240 0.694369 -0.583550
v 0.445240 0.694369 -0.541771
v 0.445240 0.694369 -0.541771
v 0.445240 1.105631 -0.541771
v 0.445240 1.105631 -0.541771
v -0.445240 1.105631 -0.541771
v -0.445240 1.105631 -0.541771
v -0.445240 0.694369 -0.541771
v -0.445240 0.694369 -0.541771
v -0.002277 1.285859 -0.500000
v -0.184295 1.299493 -0.500000
v -0.500000 0.889629 0.168375
v -0.500000 0.850731 0.264404
v -0.433913 0.800246 0.500000
v 0.210329 0.635628 0.500000
v -0.043553 0.663176 0.500000
v 0.500000 0.800246 0.101106
v -0.500000 1.305402 -0.303424
v -0.500000 1.730489 -0.483973
v 0.500000 1.314634 -0.500000
v 0.500000 1.314634 -0.500000
v 0.500000 1.191890 -0.391531
v 0.500000 0.868601 -0.051124
vt 0.911899 0.042564
vt 0.915056 0.055711
vt 0.905970 0.048395
vt 0.906217 0.022594
vt 0.908430 0.020458
vt 0.918585 0.025953
vt 0.891756 0.037367
vt 0.885025 0.035323
vt 0.888726 0.025169
vt 0.922220 0.028023
vt 0.915389 0.038902
vt 0.891816 0.019256
vt 0.904861 0.018313
vt 0.892576 0.040210
vt 0.780854 0.114670
vt 0.780854 0.142651
vt 0.790500 0.131735
vt 0.773424 0.084625
vt 0.773424 0.126930
vt 0.788284 0.126930
vt 0.788284 0.084625
vt 0.755890 0.084625
vt 0.755890 0.126930
vt 0.839105 0.126930
vt 0.839105 0.084625
vt 0.788284 0.084625
vt 0.788284 0.126930
vt 0.773424 0.126930
vt 0.773424 0.084625
vt 0.773424 0.124064
vt 0.773424 0.087491
vt 0.777139 0.087491
vt 0.777139 0.124064
vt 0.755890 0.071968
vt 0.839105 0.071968
vt 0.839105 0.057108
vt 0.755890 0.057108
vt 0.839105 0.071968
vt 0.755890 0.071968
vt 0.755890 0.057108
vt 0.839105 0.057108
vt 0.780854 0.007955
vt 0.848831 0.101396
vt 0.840292 0.104855
vt 0.801371 0.084717
vt 0.836085 0.096906
vt 0.841962 0.007955
vt 0.828115 0.066254
vt 0.841962 0.007955
vt 0.841962 0.114670
vt 0.805628 0.025599
vt 0.828115 0.025599
vt 0.805628 0.066254
vt 0.753033 0.007955
vt 0.834309 0.096906
vt 0.869783 0.007955
vt 0.780854 0.007955
vt 0.757903 0.087491
vt 0.757903 0.124064
vt 0.755890 0.126930
vt 0.755890 0.084625
vt 0.837092 0.124064
vt 0.837092 0.087491
vt 0.839105 0.084625
vt 0.839105 0.126930
vt 0.551262 0.770453
vt 0.551262 0.792874
vt 0.502715 0.792874
vt 0.502715 0.770453
vt 0.837092 0.057108
vt 0.757903 0.057108
vt 0.757903 0.060823
vt 0.837092 0.060823
vt 0.773424 0.087491
vt 0.773424 0.124064
vt 0.777139 0.124064
vt 0.777139 0.087491
vt 0.757903 0.057108
vt 0.837092 0.057108
vt 0.837092 0.060823
vt 0.757903 0.060823
vt 0.913096 0.042835
vt 0.896095 0.013002
vt 0.782279 0.179632
vt 0.780854 0.114670
vt 0.798335 0.141830
vt 0.841962 0.186730
vt 0.813887 0.141304
vt 0.916506 0.057065
vt 0.890162 0.039081
vt 0.753033 0.153467
vt 0.841962 0.064538
vt 0.753033 0.064538
vt 0.753033 0.007955
vt 0.753033 0.089585
vt 0.778793 0.082267
vt 0.841962 0.101396
vt 0.869783 0.007955
vt 0.820772 0.102985
vt 0.753033 0.114670
vt 0.805628 0.064538
vt 0.828115 0.075327
vt 0.805628 0.075327
vt 0.828115 0.064538
vt 0.805628 0.075327
vt 0.828115 0.075327
vt 0.681793 0.877905
vt 0.632971 0.931743
vt 0.632971 0.877905
vt 0.780854 0.066254
vt 0.791643 0.025599
vt 0.791643 0.066254
vt 0.797700 0.140092
vt 0.780854 0.186730
vt 0.753033 0.142651
vt 0.780854 0.025599
vt 0.791643 0.066254
vt 0.791643 0.025599
vt 0.869783 0.089585
vt 0.884415 0.037352
vt 0.841962 0.153467
vt 0.869783 0.101396
vt 0.828115 0.064538
vt 0.805628 0.064538
vt 0.681793 0.931743
vt 0.780854 0.025599
vt 0.780854 0.066254
vn 0.2626 0.5258 0.8090
vn 0.3544 0.2191 0.9090
vn 0.5091 0.5241 0.6827
vn -0.1624 0.8506 0.5000
vn -0.4480 0.7250 0.5231
vn -0.0653 0.6651 0.7439
vn 0.4253 0.8506 0.3090
vn 0.4750 0.8799 0.0000
vn 0.1484 0.9549 0.2571
vn -0.0379 0.6617 0.7488
vn -0.0347 0.6403 0.7673
vn -0.0448 0.9611 0.2725
vn -0.3220 0.9173 0.2340
vn 0.5388 0.6716 0.5086
vn 1.0000 0.0000 0.0000
vn 0.0000 0.0000 1.0000
vn -1.0000 0.0000 0.0000
vn 0.0000 -1.0000 0.0000
vn 0.0000 1.0000 0.0000
vn 0.0000 0.0000 -1.0000
vn 0.1716 0.2594 0.9504
vn -0.2680 0.9435 0.1947
vn 0.3035 0.1876 0.9341
vn 0.6503 0.7525 0.1039
vn 0.6070 0.7946 0.0000
usemtl Atlus
s 1
f 3/1/1 123/2/2 122/3/3
f 1/4/4 127/5/5 126/6/6
f 2/7/7 118/8/8 120/9/9
f 126/6/6 124/10/10 114/11/11
f 1/4/4 119/12/12 121/13/13
f 3/1/1 36/14/14 2/7/7
f 79/15/15 125/16/15 47/17/15
f 65/18/15 67/19/15 69/20/15 63/21/15
f 64/22/16 70/23/16 73/24/16 71/25/16
f 72/26/17 74/27/17 77/28/17 75/29/17
f 100/30/17 98/31/17 106/32/17 108/33/17
f 10/34/18 14/35/18 76/36/18 66/37/18
f 15/38/19 11/39/19 68/40/19 78/41/19
f 60/42/17 37/43/17 116/44/17
f 40/45/16 38/46/16 56/47/16
f 82/48/20 61/49/20 62/50/20
f 86/51/20 61/49/20 84/52/20
f 88/53/20 20/54/20 86/51/20
f 43/55/15 50/56/15 52/57/15
f 99/58/20 101/59/20 27/60/20 26/61/20
f 102/62/20 104/63/20 29/64/20 28/65/20
f 104/63/20 99/58/20 26/61/20 29/64/20
f 101/59/20 102/62/20 28/65/20 27/60/20
f 112/66/20 110/67/20 109/68/20 107/69/20
f 103/70/18 9/71/18 31/72/18 111/73/18
f 105/74/15 13/75/15 32/76/15 113/77/15
f 8/78/19 12/79/19 33/80/19 30/81/19
f 115/82/21 3/1/1 114/11/11
f 121/13/13 119/12/12 55/83/22
f 127/5/5 1/4/4 121/13/13
f 45/84/17 18/85/17 44/86/17
f 80/87/20 35/88/20 62/50/20
f 123/2/2 115/82/21 81/89/23
f 117/90/24 2/7/7 36/14/14
f 3/1/1 1/4/4 114/11/11
f 1/4/4 126/6/6 114/11/11
f 3/1/1 122/3/3 36/14/14
f 117/90/24 118/8/8 2/7/7
f 5/91/18 19/92/18 53/93/18
f 51/94/16 40/45/16 56/47/16
f 44/86/17 18/85/17 116/44/17
f 18/85/17 60/42/17 116/44/17
f 2/7/7 1/4/4 3/1/1
f 51/94/16 54/95/16 41/96/16
f 38/46/16 58/97/16 56/47/16
f 57/98/17 37/43/17 60/42/17
f 52/57/15 79/15/15 49/99/15
f 43/55/15 52/57/15 49/99/15
f 79/15/15 47/17/15 49/99/15
f 82/48/20 84/52/20 61/49/20
f 86/51/20 20/54/20 61/49/20
f 88/53/20 21/100/20 20/54/20
f 88/53/20 82/48/20 62/50/20
f 87/101/19 93/102/19 94/103/19
f 83/104/18 97/105/18 91/106/18
f 23/107/20 96/108/20 95/109/20
f 89/110/17 24/111/17 25/112/17
f 34/113/20 88/53/20 62/50/20
f 45/84/17 46/114/17 18/85/17
f 123/2/2 3/1/1 115/82/21
f 62/50/20 35/88/20 34/113/20
f 34/113/20 48/115/20 21/100/20
f 85/116/15 90/117/15 92/118/15
f 1/4/4 120/9/9 119/12/12
f 43/55/15 42/119/15 50/56/15
f 117/90/24 59/120/25 118/8/8
f 5/91/18 7/121/18 19/92/18
f 51/94/16 41/96/16 40/45/16
f 2/7/7 120/9/9 1/4/4
f 57/98/17 39/122/17 37/43/17
f 87/101/19 6/123/19 93/102/19
f 83/104/18 16/124/18 97/105/18
f 23/107/20 22/125/20 96/108/20
f 89/110/17 4/126/17 24/111/17
f 34/113/20 21/100/20 88/53/20
f 85/116/15 17/127/15 90/117/15
