# Blender v2.90.0 OBJ File: ''
# www.blender.org
mtllib building02.mtl
o Cube_Cube.001
v -0.272451 0.674645 0.500000
v 0.500000 0.000000 -0.500000
v 0.500000 0.000000 0.500000
v -0.500000 0.000000 -0.500000
v -0.500000 1.056226 -0.500000
v -0.500000 0.000000 0.500000
v 0.413398 0.442555 -0.413398
v 0.413398 0.442555 0.413398
v -0.413398 0.442555 -0.413398
v -0.413398 0.442555 0.413398
v -0.500000 0.841467 0.500000
v -0.500000 0.789079 0.321305
v -0.413398 0.749749 0.413398
v -0.278139 0.666411 0.413398
v 0.500000 0.666412 0.411473
v 0.500000 0.695183 0.500000
v 0.435680 0.666412 0.500000
v 0.253274 0.628908 0.500000
v 0.225136 0.610186 0.413398
v 0.500000 0.630861 0.173482
v 0.413398 0.648894 0.413398
v 0.413398 0.613055 0.173482
v -0.500000 0.789079 0.025660
v -0.413398 0.741197 -0.037260
v 0.500000 0.666412 -0.064509
v 0.500000 0.751561 -0.326514
v 0.413398 0.666412 -0.183704
v 0.413398 0.712823 -0.326513
v -0.500000 0.883591 -0.296719
v -0.413398 0.798816 -0.233799
v -0.500000 0.948976 -0.399232
v -0.336111 0.928762 -0.500000
v -0.159720 0.837831 -0.500000
v -0.413398 0.913367 -0.413398
v -0.187857 0.797100 -0.413398
v -0.500000 1.056226 -0.429175
v -0.396942 1.056226 -0.500000
v 0.070855 0.798436 -0.500000
v 0.366008 0.810875 -0.500000
v 0.190053 0.732531 -0.413398
v 0.337869 0.738760 -0.413398
v 0.500000 0.870810 -0.500000
v 0.413398 0.772545 -0.413398
vt 0.077608 -0.173191
vt 0.077608 0.651263
vt 0.241859 0.538362
vt 0.489916 0.457746
vt 0.715238 0.424088
vt 0.940560 0.457746
vt 1.024375 0.484985
vt 1.024375 -0.173191
vt 0.022155 -0.173191
vt 0.022155 0.484985
vt 0.083051 0.457746
vt 0.255747 0.422239
vt 0.753486 0.465541
vt 0.968922 0.623483
vt 0.968922 -0.173191
vt 1.024375 -0.173191
vt 1.024375 0.623483
vt 0.855192 0.573883
vt 0.575285 0.573883
vt 0.270068 0.663364
vt 0.173011 0.725268
vt 0.144662 0.826809
vt 0.077608 0.826809
vt 0.077608 -0.173191
vt 0.968922 -0.173191
vt 0.968922 0.826809
vt 0.871351 0.826809
vt 0.813757 0.706130
vt 0.646756 0.620040
vt 0.428456 0.582741
vt 0.149015 0.594518
vt 0.022155 0.651263
vt 0.022155 -0.173191
vt 0.159600 0.245805
vt 0.942382 0.245805
vt 0.942382 0.441160
vt 0.715238 0.407230
vt 0.377066 0.457746
vt 0.241859 0.501686
vt 0.159600 0.558229
vt 0.104147 0.245805
vt 0.886930 0.245805
vt 0.886930 0.536647
vt 0.758871 0.457745
vt 0.282388 0.404513
vt 0.104147 0.441160
vt 0.942382 0.245805
vt 0.159600 0.245805
vt 0.159600 0.691555
vt 0.329638 0.583102
vt 0.515715 0.528549
vt 0.942382 0.536647
vt 0.886930 0.245805
vt 0.104147 0.245805
vt 0.104147 0.558229
vt 0.175655 0.526243
vt 0.315603 0.520345
vt 0.673396 0.581477
vt 0.886930 0.691555
vt 0.104147 0.942382
vt 0.104147 0.159600
vt 0.886930 0.159600
vt 0.886930 0.942382
vt 0.315603 0.159600
vt 0.428456 0.077608
vt 0.646756 0.077608
vt 0.673396 0.159600
vt 0.104147 0.715238
vt 0.022155 0.715238
vt 0.022155 0.489916
vt 0.104147 0.377066
vt 0.282388 0.942382
vt 0.255747 1.024375
vt 0.083051 1.024375
vt 0.022155 0.940560
vt 0.104147 0.942382
vt 0.022155 0.241859
vt 0.104147 0.241859
vt 0.968922 0.855192
vt 0.886930 0.942382
vt 0.886930 0.515715
vt 0.968922 0.575285
vt 0.968922 0.725268
vt 0.968922 0.826809
vt 0.753486 1.024375
vt 0.758871 0.942382
vt 0.968922 1.024375
vt 0.813757 0.077608
vt 0.968922 0.173011
vt 0.968922 0.270068
vt 0.886930 0.329638
vt 0.886930 0.159600
vt 0.022155 0.077608
vt 0.149015 0.077608
vt 0.175655 0.159600
vt 0.104147 0.159600
vt 0.968922 0.144662
vt 0.871351 0.077608
vt 0.968922 0.077608
vt 0.022155 1.024375
vn 1.0000 -0.0000 0.0000
vn 0.0000 0.0000 1.0000
vn -1.0000 0.0000 0.0000
vn 0.0000 0.0000 -1.0000
vn 0.0000 1.0000 0.0000
vn 0.1495 0.8751 0.4602
vn -0.1993 0.9692 0.1448
vn -0.1993 0.9692 -0.1448
vn -0.3915 0.8751 0.2844
vn 0.4511 0.8924 -0.0102
vn 0.5375 0.2423 0.8077
vn 0.5682 0.7949 -0.2127
vn 0.3986 0.7732 0.4932
vn -0.3459 0.7732 0.5315
vn -0.0326 0.7732 0.6333
vn 0.5922 0.7732 0.2267
vn 0.0971 0.9804 -0.1715
vn -0.3915 0.8751 -0.2844
usemtl None
s off
f 2/1/1 42/2/1 26/3/1 25/4/1 20/5/1 15/6/1 16/7/1 3/8/1
f 3/9/2 16/10/2 17/11/2 18/12/2 1/13/2 11/14/2 6/15/2
f 6/16/3 11/17/3 12/18/3 23/19/3 29/20/3 31/21/3 36/22/3 5/23/3 4/24/3
f 4/25/4 5/26/4 37/27/4 32/28/4 33/29/4 38/30/4 39/31/4 42/32/4 2/33/4
f 7/34/3 8/35/3 21/36/3 22/37/3 27/38/3 28/39/3 43/40/3
f 8/41/4 10/42/4 13/43/4 14/44/4 19/45/4 21/46/4
f 10/47/1 9/48/1 34/49/1 30/50/1 24/51/1 13/52/1
f 9/53/2 7/54/2 43/55/2 41/56/2 40/57/2 35/58/2 34/59/2
f 8/60/5 7/61/5 9/62/5 10/63/5
f 40/64/6 38/65/6 33/66/6 35/67/6
f 22/68/7 20/69/7 25/70/7 27/71/7
f 19/72/8 18/73/8 17/74/8 15/75/8 20/69/8 22/68/8 21/76/8
f 26/77/9 28/78/9 27/71/9 25/70/9
f 12/79/10 13/80/10 24/81/10 23/82/10
f 31/83/11 32/28/11 37/27/11 36/84/11
f 1/85/12 14/86/12 13/80/12 12/79/12 11/87/12
f 35/67/13 33/66/13 32/88/13 31/89/13 29/90/13 30/91/13 34/92/13
f 28/78/14 26/77/14 42/93/14 39/94/14 41/95/14 43/96/14
f 41/95/15 39/94/15 38/65/15 40/64/15
f 36/97/5 37/98/5 5/99/5
f 23/82/16 24/81/16 30/91/16 29/90/16
f 14/86/17 1/85/17 18/73/17 19/72/17
f 15/75/18 17/74/18 16/100/18
