# Blender v2.90.0 OBJ File: 'crap.blend'
# www.blender.org
mtllib carBody.mtl
o fiat_punto.1.BAKE.001_Plane.047
v -1.574098 0.160460 0.348658
v -1.554196 0.443238 0.348658
v -1.439669 0.141775 0.480000
v -1.423399 0.381890 0.480000
v -1.217223 0.145712 0.480000
v -1.198403 0.271088 0.480000
v -1.117693 0.364874 0.480000
v -1.001649 0.382994 0.480000
v -0.888452 0.354792 0.480000
v -0.815346 0.254241 0.480000
v -0.806386 0.092400 0.480000
v -1.168262 0.587507 0.407562
v -1.004469 0.561971 0.480000
v -0.721894 0.715851 0.426022
v -0.050562 0.932246 0.320000
v 0.633040 0.948865 0.320000
v 1.291544 0.920149 0.320000
v 1.390218 0.558031 0.480000
v 1.400072 0.257323 0.480000
v 1.196047 0.124196 0.480000
v 1.173036 0.264423 0.480000
v 1.090998 0.365461 0.480000
v 0.976925 0.374031 0.480000
v 0.868349 0.340831 0.480000
v 0.800995 0.223267 0.480000
v 0.797024 0.080056 0.480000
v 1.493373 0.150663 0.421106
v 1.475736 0.260308 0.421106
v 1.420715 0.150663 0.480000
v 1.442216 0.598857 0.365559
v -0.750170 0.764964 0.369005
v -0.067266 0.972285 0.280000
v 0.632442 0.987240 0.280000
v 1.355909 0.925559 0.254254
v -0.421634 0.888460 0.319031
v -0.397529 0.845685 0.372043
v -0.729976 0.534556 0.480000
v -0.043745 0.534556 0.480000
v 0.675961 0.539540 0.480000
v -0.386861 0.534556 0.480000
v -1.574098 0.160460 -0.348658
v -1.554196 0.443238 -0.348658
v -1.439669 0.141775 -0.480000
v -1.423399 0.381890 -0.480000
v -1.217223 0.145712 -0.480000
v -1.198403 0.271088 -0.480000
v -1.117693 0.364874 -0.480000
v -1.001649 0.382994 -0.480000
v -0.888452 0.354792 -0.480000
v -0.815346 0.254241 -0.480000
v -0.806386 0.092400 -0.480000
v -1.168262 0.587507 -0.407561
v -1.004469 0.561971 -0.480000
v -0.721894 0.715851 -0.426022
v -0.050562 0.932246 -0.320000
v 0.633040 0.948865 -0.320000
v 1.291544 0.920149 -0.320000
v 1.390218 0.558031 -0.480000
v 1.400072 0.257323 -0.480000
v 1.196047 0.124196 -0.480000
v 1.173036 0.264423 -0.480000
v 1.090998 0.365461 -0.480000
v 0.976925 0.374031 -0.480000
v 0.868349 0.340831 -0.480000
v 0.800995 0.223267 -0.480000
v 0.797024 0.080056 -0.480000
v 1.493373 0.150663 -0.421106
v 1.475736 0.260308 -0.421106
v 1.420715 0.150663 -0.480000
v 1.442216 0.598857 -0.365559
v -0.750170 0.764964 -0.369005
v -0.067266 0.972285 -0.280000
v 0.632442 0.987240 -0.280000
v 1.355909 0.925559 -0.254254
v -0.421634 0.888460 -0.319031
v -0.397529 0.845685 -0.372043
v -0.729976 0.534556 -0.480000
v -0.043745 0.534556 -0.480000
v 0.675961 0.539540 -0.480000
v -0.386861 0.534556 -0.480000
v -1.574098 0.160460 0.000000
v -1.554196 0.443238 0.000000
v -1.168262 0.587507 0.000000
v 1.493373 0.150663 0.000000
v 1.475736 0.260308 0.000000
v 1.442216 0.598857 0.040000
v -0.723590 0.703174 -0.388105
v -0.067266 0.972285 0.000000
v 0.632442 0.987240 0.000000
v 1.355909 0.925559 0.040000
v -1.006165 0.549293 -0.442083
v -1.006165 0.549293 0.442083
v -0.723590 0.703174 0.388105
v -0.399226 0.833008 0.334127
v -0.052258 0.919568 0.282083
v -0.731673 0.521878 0.442083
v -0.388557 0.521878 0.442083
v -0.045441 0.521878 0.442083
v -0.727781 0.728602 0.369005
v -1.145874 0.551146 0.407562
v -0.399245 0.852098 0.319031
v -0.044877 0.935924 0.280000
v -0.727781 0.732606 0.000000
v -1.145874 0.551146 0.000000
v -0.399245 0.857103 0.000000
v -0.044877 0.935924 0.000000
v -0.727781 0.728602 -0.369005
v -1.145874 0.551146 -0.407561
v -0.399245 0.852098 -0.319031
v -0.044877 0.935924 -0.280000
v -0.399226 0.833008 -0.334126
v -0.052258 0.919568 -0.282083
v -0.731673 0.521878 -0.442083
v -0.388557 0.521878 -0.442083
v -0.045441 0.521878 -0.442083
v 1.452584 0.559609 0.421106
v 1.345541 0.964807 0.283058
v 1.442216 0.598857 -0.040000
v 1.355909 0.925559 -0.040000
v 1.452584 0.559609 0.000000
v 1.345541 0.964807 0.000000
v 1.452584 0.559609 -0.421106
v 1.345541 0.964807 -0.283058
v 1.389500 0.591137 -0.040000
v 1.303193 0.917840 -0.040000
v 1.389500 0.591137 -0.365559
v 1.303193 0.917840 -0.254254
v 1.389500 0.591137 0.365559
v 1.303193 0.917840 0.254254
v 1.389500 0.591137 0.040000
v 1.303193 0.917840 0.040000
v -1.574098 0.160460 0.348658
v -1.439669 0.141775 0.480000
v -1.217223 0.145712 0.480000
v -1.217223 0.145712 0.480000
v -1.198403 0.271088 0.480000
v -1.117693 0.364874 0.480000
v -1.001649 0.382994 0.480000
v -0.888452 0.354792 0.480000
v -0.815346 0.254241 0.480000
v -0.806386 0.092400 0.480000
v -0.806386 0.092400 0.480000
v -1.004469 0.561971 0.480000
v -1.004469 0.561971 0.480000
v -0.721894 0.715851 0.426022
v -0.397529 0.845685 0.372043
v -0.050562 0.932246 0.320000
v -0.050562 0.932246 0.320000
v 1.196047 0.124196 0.480000
v 1.173036 0.264423 0.480000
v 1.090998 0.365461 0.480000
v 0.976925 0.374031 0.480000
v 0.868349 0.340831 0.480000
v 0.800995 0.223267 0.480000
v 0.797024 0.080056 0.480000
v 0.797024 0.080056 0.480000
v 1.420715 0.150663 0.480000
v 1.493373 0.150663 0.421106
v -0.750170 0.764964 0.369005
v -1.168262 0.587507 0.407562
v -1.168262 0.587507 0.407562
v -0.421634 0.888460 0.319031
v -0.067266 0.972285 0.280000
v -0.067266 0.972285 0.280000
v -0.729976 0.534556 0.480000
v -0.386861 0.534556 0.480000
v -0.043745 0.534556 0.480000
v -0.043745 0.534556 0.480000
v -0.045441 0.521878 0.442083
v -0.045441 0.521878 0.442083
v -1.168262 0.587507 -0.407561
v -1.168262 0.587507 -0.407561
v -1.145874 0.551146 -0.407561
v -1.145874 0.551146 -0.407561
v -1.574098 0.160460 0.000000
v -1.168262 0.587507 0.000000
v -0.044877 0.935924 0.280000
v -0.044877 0.935924 0.280000
v 1.493373 0.150663 0.000000
v -0.067266 0.972285 0.000000
v -1.574098 0.160460 -0.348658
v -1.439669 0.141775 -0.480000
v -1.217223 0.145712 -0.480000
v -1.217223 0.145712 -0.480000
v -1.198403 0.271088 -0.480000
v -1.117693 0.364874 -0.480000
v -1.001649 0.382994 -0.480000
v -0.888452 0.354792 -0.480000
v -0.815346 0.254241 -0.480000
v -0.806386 0.092400 -0.480000
v -0.806386 0.092400 -0.480000
v -1.004469 0.561971 -0.480000
v -1.004469 0.561971 -0.480000
v -0.721894 0.715851 -0.426022
v -0.397529 0.845685 -0.372043
v -0.050562 0.932246 -0.320000
v -0.050562 0.932246 -0.320000
v 1.196047 0.124196 -0.480000
v 1.173036 0.264423 -0.480000
v 1.090998 0.365461 -0.480000
v 0.976925 0.374031 -0.480000
v 0.868349 0.340831 -0.480000
v 0.800995 0.223267 -0.480000
v 0.797024 0.080056 -0.480000
v 0.797024 0.080056 -0.480000
v 1.420715 0.150663 -0.480000
v 1.493373 0.150663 -0.421106
v -0.750170 0.764964 -0.369005
v -0.421634 0.888460 -0.319031
v -0.067266 0.972285 -0.280000
v -0.067266 0.972285 -0.280000
v -0.729976 0.534556 -0.480000
v -0.386861 0.534556 -0.480000
v -0.043745 0.534556 -0.480000
v -0.043745 0.534556 -0.480000
v -0.044877 0.935924 -0.280000
v -0.044877 0.935924 -0.280000
v -1.006165 0.549293 0.442083
v -1.006165 0.549293 0.442083
v -0.723590 0.703174 0.388105
v -0.399226 0.833008 0.334127
v -0.052258 0.919568 0.282083
v -0.052258 0.919568 0.282083
v -0.731673 0.521878 0.442083
v -0.388557 0.521878 0.442083
v -0.727781 0.728602 0.369005
v -1.145874 0.551146 0.407562
v -1.145874 0.551146 0.407562
v -0.399245 0.852098 0.319031
v -1.145874 0.551146 0.000000
v -0.044877 0.935924 0.000000
v -0.727781 0.728602 -0.369005
v -0.399245 0.852098 -0.319031
v -1.006165 0.549293 -0.442083
v -1.006165 0.549293 -0.442083
v -0.723590 0.703174 -0.388105
v -0.399226 0.833008 -0.334126
v -0.052258 0.919568 -0.282083
v -0.052258 0.919568 -0.282083
v -0.731673 0.521878 -0.442083
v -0.388557 0.521878 -0.442083
v -0.045441 0.521878 -0.442083
v -0.045441 0.521878 -0.442083
v 1.442216 0.598857 0.365559
v 1.442216 0.598857 0.365559
v 1.355909 0.925559 0.254254
v 1.442216 0.598857 0.040000
v 1.442216 0.598857 0.040000
v 1.355909 0.925559 0.040000
v 1.355909 0.925559 0.040000
v 1.442216 0.598857 -0.040000
v 1.442216 0.598857 -0.040000
v 1.355909 0.925559 -0.040000
v 1.355909 0.925559 -0.040000
v 1.442216 0.598857 -0.365559
v 1.442216 0.598857 -0.365559
v 1.355909 0.925559 -0.254254
v 1.389500 0.591137 -0.040000
v 1.389500 0.591137 -0.040000
v 1.303193 0.917840 -0.040000
v 1.303193 0.917840 -0.040000
v 1.389500 0.591137 -0.365559
v 1.389500 0.591137 -0.365559
v 1.303193 0.917840 -0.254254
v 1.389500 0.591137 0.365559
v 1.389500 0.591137 0.365559
v 1.303193 0.917840 0.254254
v 1.389500 0.591137 0.040000
v 1.389500 0.591137 0.040000
v 1.303193 0.917840 0.040000
v 1.303193 0.917840 0.040000
vt 0.790764 0.168908
vt 0.787814 0.160874
vt 0.792456 0.158820
vt 0.794596 0.165517
vt 0.804206 0.169952
vt 0.800229 0.171908
vt 0.795902 0.157658
vt 0.797396 0.161272
vt 0.800209 0.163843
vt 0.803570 0.164097
vt 0.818678 0.178747
vt 0.818124 0.180887
vt 0.810221 0.177021
vt 0.810942 0.174684
vt 0.859972 0.158003
vt 0.860370 0.154582
vt 0.862935 0.154614
vt 0.862594 0.158126
vt 0.854843 0.157866
vt 0.855441 0.154731
vt 0.826919 0.181529
vt 0.826593 0.183323
vt 0.842900 0.181310
vt 0.842966 0.183049
vt 0.858221 0.179808
vt 0.859610 0.181564
vt 0.859925 0.167375
vt 0.862186 0.167811
vt 0.832229 0.233215
vt 0.824252 0.233446
vt 0.824255 0.232196
vt 0.832232 0.231965
vt 0.843311 0.167491
vt 0.826490 0.168085
vt 0.806806 0.162996
vt 0.810486 0.168803
vt 0.830306 0.228773
vt 0.838621 0.228887
vt 0.838623 0.230136
vt 0.830308 0.230023
vt 0.816274 0.233677
vt 0.816278 0.232427
vt 0.808770 0.159715
vt 0.818479 0.168438
vt 0.852455 0.160166
vt 0.843657 0.157416
vt 0.808847 0.155729
vt 0.843394 0.154276
vt 0.849057 0.160497
vt 0.845785 0.159908
vt 0.836458 0.209641
vt 0.836606 0.218486
vt 0.825715 0.218669
vt 0.825567 0.209824
vt 0.765332 0.234622
vt 0.775501 0.234451
vt 0.775522 0.235701
vt 0.765353 0.235871
vt 0.838614 0.228499
vt 0.825883 0.228712
vt 0.779370 0.178874
vt 0.788048 0.179861
vt 0.788058 0.181110
vt 0.779379 0.180124
vt 0.850593 0.183005
vt 0.859958 0.182848
vt 0.860179 0.196002
vt 0.850814 0.196159
vt 0.863408 0.182791
vt 0.863628 0.195945
vt 0.804889 0.188180
vt 0.821169 0.187907
vt 0.821315 0.196653
vt 0.805036 0.196926
vt 0.838742 0.236162
vt 0.826012 0.236376
vt 0.825991 0.235126
vt 0.838722 0.234913
vt 0.837766 0.187534
vt 0.837914 0.196375
vt 0.770677 0.179265
vt 0.770687 0.180514
vt 0.859856 0.138901
vt 0.855913 0.135641
vt 0.857828 0.128875
vt 0.862536 0.130773
vt 0.850498 0.142216
vt 0.846457 0.140395
vt 0.852972 0.131492
vt 0.854345 0.127830
vt 0.850247 0.134155
vt 0.846896 0.134522
vt 0.832288 0.149669
vt 0.839884 0.145350
vt 0.840683 0.147661
vt 0.832913 0.151790
vt 0.790322 0.130320
vt 0.787705 0.130531
vt 0.787247 0.127033
vt 0.789810 0.126915
vt 0.795444 0.130012
vt 0.794741 0.126898
vt 0.824530 0.154509
vt 0.824145 0.152726
vt 0.808157 0.154783
vt 0.808165 0.153043
vt 0.791473 0.153856
vt 0.792803 0.152054
vt 0.788438 0.140197
vt 0.790683 0.139686
vt 0.829966 0.230365
vt 0.838630 0.230524
vt 0.838669 0.231773
vt 0.830005 0.231614
vt 0.807292 0.139245
vt 0.824123 0.139275
vt 0.840142 0.139456
vt 0.843626 0.133530
vt 0.775425 0.234369
vt 0.762034 0.234593
vt 0.762088 0.233345
vt 0.775479 0.233120
vt 0.830739 0.234865
vt 0.822759 0.234902
vt 0.822714 0.233653
vt 0.830694 0.233616
vt 0.832141 0.139359
vt 0.841552 0.130316
vt 0.797907 0.132231
vt 0.806608 0.129187
vt 0.806766 0.126041
vt 0.841343 0.126336
vt 0.801314 0.132448
vt 0.804565 0.131749
vt 0.814676 0.210006
vt 0.814824 0.218851
vt 0.764467 0.230556
vt 0.757774 0.230668
vt 0.757753 0.229418
vt 0.764446 0.229306
vt 0.813152 0.228925
vt 0.776841 0.181627
vt 0.788078 0.182326
vt 0.788110 0.183575
vt 0.776873 0.182876
vt 0.851034 0.209313
vt 0.860399 0.209156
vt 0.863848 0.209098
vt 0.805183 0.205672
vt 0.821462 0.205400
vt 0.757942 0.230749
vt 0.766688 0.230602
vt 0.766709 0.231852
vt 0.757963 0.231998
vt 0.838062 0.205217
vt 0.759500 0.182804
vt 0.768140 0.181528
vt 0.768172 0.182777
vt 0.759532 0.184054
vt 0.775320 0.218654
vt 0.774745 0.184276
vt 0.804732 0.183774
vt 0.805308 0.218152
vt 0.775437 0.225594
vt 0.775375 0.221918
vt 0.805362 0.221416
vt 0.805424 0.225092
vt 0.790315 0.218487
vt 0.801206 0.218304
vt 0.767678 0.126696
vt 0.768181 0.156683
vt 0.763337 0.156764
vt 0.762834 0.126777
vt 0.761616 0.154953
vt 0.761396 0.141799
vt 0.787654 0.156357
vt 0.784522 0.156409
vt 0.784020 0.126422
vt 0.787152 0.126369
vt 0.781271 0.156464
vt 0.780769 0.126476
vt 0.777979 0.156519
vt 0.777477 0.126531
vt 0.774600 0.156575
vt 0.774098 0.126588
vt 0.771320 0.156630
vt 0.770817 0.126643
vt 0.758040 0.179148
vt 0.757974 0.175194
vt 0.787961 0.174691
vt 0.788028 0.178645
vt 0.757911 0.171454
vt 0.787899 0.170952
vt 0.757855 0.168064
vt 0.787842 0.167562
vt 0.757798 0.164687
vt 0.787785 0.164185
vt 0.757735 0.160906
vt 0.787722 0.160403
vt 0.757668 0.156943
vt 0.787656 0.156440
vt 0.779425 0.218669
vt 0.761175 0.128645
vt 0.682358 0.880605
vt 0.699253 0.888444
vt 0.690604 0.903191
vt 0.718776 0.900746
vt 0.702330 0.925545
vt 0.738309 0.913032
vt 0.717352 0.945596
vt 0.761990 0.232015
vt 0.775382 0.231791
vt 0.775478 0.233036
vt 0.762086 0.233261
vt 0.812922 0.229317
vt 0.821576 0.228868
vt 0.821579 0.230118
vt 0.812925 0.230567
vt 0.838670 0.233302
vt 0.838674 0.232052
vt 0.687711 0.997092
vt 0.664613 0.994874
vt 0.663813 0.965962
vt 0.686962 0.965146
vt 0.646910 0.991572
vt 0.646193 0.966583
vt 0.629043 0.989158
vt 0.628507 0.967206
vt 0.686198 0.933201
vt 0.663243 0.937042
vt 0.645726 0.941584
vt 0.628003 0.945253
vt 0.759470 0.180339
vt 0.759479 0.181589
vt 0.813281 0.236589
vt 0.813260 0.235339
vt 0.775434 0.230456
vt 0.775455 0.231705
vt 0.735797 0.972087
vt 0.714685 0.944518
vt 0.739358 0.945425
vt 0.739523 0.912100
vt 0.696556 0.912890
vt 0.683789 0.879034
vt 0.739714 0.878776
vt 0.821238 0.230563
vt 0.821277 0.231812
vt 0.816324 0.235204
vt 0.816279 0.233955
vt 0.838720 0.234829
vt 0.838675 0.233580
vt 0.812931 0.230955
vt 0.812970 0.232204
vt 0.849373 0.184761
vt 0.839031 0.188412
vt 0.839143 0.195105
vt 0.849543 0.194931
vt 0.849585 0.197430
vt 0.839185 0.197604
vt 0.839297 0.204296
vt 0.849756 0.207599
vt 0.747022 0.953948
vt 0.747022 0.990722
vt 0.689874 0.990722
vt 0.689874 0.934844
vt 0.775433 0.230372
vt 0.775412 0.229123
vt 0.811419 0.210061
vt 0.811589 0.220230
vt 0.810340 0.220251
vt 0.810169 0.210082
vt 0.805788 0.233742
vt 0.816189 0.233568
vt 0.816209 0.234817
vt 0.805809 0.234991
vt 0.747022 0.915717
vt 0.689874 0.934821
vt 0.689874 0.878943
vt 0.747022 0.878943
vt 0.812864 0.216731
vt 0.813048 0.227697
vt 0.811798 0.227718
vt 0.811615 0.216752
vt 0.812752 0.210038
vt 0.811503 0.210059
vt 0.805766 0.232409
vt 0.816166 0.232234
vt 0.816187 0.233484
vt 0.805787 0.233658
vn -0.7629 0.5362 0.3610
vn -0.9164 0.0640 0.3950
vn -0.3797 0.0262 0.9247
vn -0.3554 0.2600 0.8978
vn -0.1377 0.3764 0.9161
vn -0.3280 0.7800 0.5329
vn 0.0000 0.0000 1.0000
vn -0.1279 0.7206 0.6814
vn -0.1300 0.7204 0.6812
vn -0.1957 0.6910 0.6958
vn -0.1963 0.6905 0.6962
vn 0.3214 0.0360 0.9462
vn 0.3494 0.0618 0.9349
vn 0.8977 0.1497 0.4144
vn 0.8963 0.1058 0.4306
vn -0.0359 0.6196 0.7841
vn -0.0467 0.8753 0.4813
vn 0.0011 0.5463 0.8376
vn 0.0046 0.9211 0.3893
vn 0.1737 0.5214 0.8354
vn 0.5761 0.7397 0.3476
vn 0.3066 0.2155 0.9271
vn 0.8571 0.2229 0.4645
vn 0.0463 0.9467 -0.3186
vn 0.0000 0.9484 -0.3171
vn 0.0479 0.9467 -0.3186
vn -0.0006 0.1906 0.9817
vn -0.0019 0.1250 0.9921
vn 0.4480 -0.8537 0.2654
vn 0.4995 -0.8280 0.2545
vn 0.4494 -0.8531 0.2651
vn -0.8011 0.5985 0.0000
vn -0.9975 0.0702 0.0000
vn -0.1449 0.9894 0.0000
vn -0.3501 0.9367 0.0000
vn -0.1111 -0.0684 -0.9914
vn -0.0955 -0.0588 -0.9937
vn -0.1068 -0.0658 -0.9921
vn 0.9930 0.1180 0.0000
vn 0.9860 0.1669 0.0000
vn 0.9873 0.1588 0.0000
vn 0.0050 1.0000 0.0000
vn -0.0214 0.9998 0.0000
vn 0.8515 0.5243 0.0000
vn 0.6225 0.7826 0.0000
vn -0.0949 -0.0584 -0.9937
vn -0.1002 -0.0617 -0.9930
vn -0.7629 0.5362 -0.3610
vn -0.3554 0.2600 -0.8978
vn -0.3797 0.0262 -0.9247
vn -0.9164 0.0640 -0.3950
vn -0.3280 0.7800 -0.5329
vn -0.1377 0.3764 -0.9161
vn 0.0000 0.0000 -1.0000
vn -0.1279 0.7206 -0.6814
vn -0.1963 0.6905 -0.6962
vn -0.1957 0.6910 -0.6958
vn -0.1300 0.7204 -0.6812
vn 0.3214 0.0360 -0.9462
vn 0.8963 0.1058 -0.4306
vn 0.8977 0.1497 -0.4144
vn 0.3494 0.0618 -0.9349
vn -0.0467 0.8753 -0.4813
vn -0.0359 0.6196 -0.7841
vn 0.0046 0.9211 -0.3893
vn 0.0011 0.5463 -0.8376
vn 0.5761 0.7397 -0.3476
vn 0.1737 0.5214 -0.8354
vn 0.8571 0.2229 -0.4645
vn 0.3066 0.2155 -0.9271
vn 0.3354 -0.8979 -0.2852
vn 0.2726 -0.9160 -0.2941
vn 0.3350 -0.8980 -0.2852
vn -0.0006 0.1906 -0.9817
vn -0.0019 0.1250 -0.9921
vn -0.9990 0.0007 -0.0444
vn 0.0000 0.9484 0.3171
vn 0.0463 0.9467 0.3186
vn 0.0479 0.9467 0.3186
vn 0.1154 -0.7882 0.6045
vn 0.1449 -0.9894 0.0000
vn 0.1196 -0.8167 0.5645
vn -0.0949 -0.0584 0.9937
vn -0.0728 -0.0448 0.9963
vn -0.1002 -0.0617 0.9930
vn -0.8515 -0.5243 0.0000
vn -0.0955 -0.0588 0.9937
vn -0.1111 -0.0684 0.9914
vn -0.1068 -0.0658 0.9921
vn -0.0077 -1.0000 0.0000
vn 0.0177 -0.9998 0.0000
vn -0.0349 -0.9994 0.0000
vn -0.1377 -0.9904 0.0000
vn -0.6016 -0.7988 0.0000
vn 0.0748 -0.9972 0.0000
vn 0.0000 -1.0000 0.0000
vn 0.9996 -0.0277 0.0000
vn 0.9627 -0.2706 0.0000
vn 0.6238 -0.7815 0.0000
vn 0.1106 -0.9938 0.0000
vn -0.4635 -0.8861 0.0000
vn -0.9121 -0.4099 0.0000
vn 0.9889 -0.1484 0.0000
vn 0.9090 -0.4167 0.0000
vn 0.4860 -0.8739 0.0000
vn -0.0446 -0.9990 0.0000
vn -0.5590 -0.8292 0.0000
vn -0.9421 -0.3353 0.0000
vn -0.9984 -0.0553 0.0000
vn 0.0284 0.2841 0.9584
vn 0.0222 0.2983 0.9542
vn 0.0201 0.3030 0.9528
vn 0.0211 0.3338 0.9424
vn 0.0221 0.3376 0.9410
vn 0.0261 0.3540 0.9348
vn -0.9990 0.0007 0.0444
vn 0.2726 -0.9160 0.2941
vn 0.3354 -0.8979 0.2852
vn 0.3350 -0.8980 0.2852
vn 0.0941 0.9429 -0.3195
vn -0.3942 0.9190 0.0047
vn -0.3749 0.9270 0.0082
vn -0.3733 0.9277 0.0000
vn -0.3942 0.9190 0.0000
vn -0.2936 0.9558 0.0104
vn -0.2882 0.9575 0.0000
vn -0.2232 0.9747 0.0081
vn -0.2232 0.9748 0.0000
vn -0.3942 0.9190 -0.0047
vn -0.3749 0.9270 -0.0082
vn -0.2936 0.9558 -0.0104
vn -0.2232 0.9747 -0.0081
vn -0.0728 -0.0448 -0.9963
vn 0.0284 0.2841 -0.9584
vn 0.0201 0.3030 -0.9528
vn 0.0222 0.2983 -0.9542
vn 0.0211 0.3338 -0.9424
vn 0.0221 0.3376 -0.9410
vn 0.0261 0.3540 -0.9348
vn 0.4480 -0.8537 -0.2654
vn 0.4494 -0.8531 -0.2651
vn 0.0941 0.9429 0.3195
vn 0.4995 -0.8280 -0.2545
vn 0.9668 0.2554 0.0000
vn 0.0456 -0.3113 0.9492
vn 0.1154 -0.7882 -0.6045
vn 0.0456 -0.3113 -0.9492
vn 0.1196 -0.8167 -0.5645
usemtl Atlus
s 1
f 2/1/1 132/2/2 133/3/3 4/4/4
f 2/1/1 4/4/4 143/5/5 160/6/6
f 133/3/3 134/7/7 136/8/7 4/4/4
f 4/4/4 136/8/7 137/9/7
f 4/4/4 137/9/7 138/10/7 143/5/5
f 146/11/8 162/12/9 159/13/10 145/14/11
f 143/5/5 145/14/11 159/13/10 160/6/6
f 19/15/12 157/16/13 158/17/14 28/18/15
f 150/19/7 149/20/7 157/16/13 19/15/12
f 162/12/9 146/11/8 147/21/16 163/22/17
f 163/22/17 147/21/16 16/23/18 33/24/19
f 33/24/19 16/23/18 17/25/20 117/26/21
f 117/26/21 17/25/20 18/27/22 116/28/23
f 116/28/23 18/27/22 19/15/12 28/18/15
f 37/29/24 166/30/25 225/31/25 96/32/26
f 16/23/18 39/33/27 18/27/22 17/25/20
f 147/21/16 168/34/28 39/33/27 16/23/18
f 143/5/5 138/10/7 139/35/7 165/36/7
f 14/37/29 144/38/30 218/39/30 220/40/31
f 166/30/25 167/41/25 169/42/25 225/31/25
f 165/36/7 139/35/7 140/43/7 40/44/7
f 18/27/22 151/45/7 150/19/7 19/15/12
f 154/46/7 140/43/7 141/47/7 155/48/7
f 151/45/7 18/27/22 39/33/27 152/49/7
f 40/44/7 140/43/7 154/46/7 168/34/28
f 153/50/7 39/33/27 168/34/28 154/46/7
f 152/49/7 39/33/27 153/50/7
f 132/51/2 2/52/1 82/53/32 175/54/33
f 245/55/34 248/56/34 269/57/34 266/58/34
f 2/52/1 160/59/6 176/60/35 82/53/32
f 35/61/36 164/62/37 177/63/37 229/64/38
f 116/65/23 28/66/15 85/67/39 120/68/40
f 28/66/15 158/69/14 179/70/41 85/67/39
f 163/71/17 33/72/19 89/73/42 180/74/43
f 171/75/44 83/76/44 104/77/44 173/78/44
f 33/72/19 117/79/21 121/80/45 89/73/42
f 31/81/46 35/61/36 229/64/38 99/82/47
f 42/83/48 44/84/49 182/85/50 181/86/51
f 42/83/48 172/87/52 192/88/53 44/84/49
f 182/85/50 44/84/49 185/89/54 183/90/54
f 44/84/49 186/91/54 185/89/54
f 44/84/49 192/88/53 187/92/54 186/91/54
f 195/93/55 194/94/56 71/95/57 209/96/58
f 192/88/53 172/87/52 71/95/57 194/94/56
f 59/97/59 68/98/60 207/99/61 206/100/62
f 199/101/54 59/97/59 206/100/62 198/102/54
f 209/96/58 210/103/63 196/104/64 195/93/55
f 210/103/63 73/105/65 56/106/66 196/104/64
f 73/105/65 123/107/67 57/108/68 56/106/66
f 123/107/67 122/109/69 58/110/70 57/108/68
f 122/109/69 68/98/60 59/97/59 58/110/70
f 76/111/71 197/112/72 238/113/72 237/114/73
f 56/106/66 57/108/68 58/110/70 79/115/74
f 196/104/64 56/106/66 79/115/74 214/116/75
f 192/88/53 212/117/54 188/118/54 187/92/54
f 55/119/76 215/120/76 243/121/76 239/122/76
f 80/123/77 77/124/78 240/125/79 241/126/77
f 212/117/54 213/127/54 189/128/54 188/118/54
f 58/110/70 59/97/59 199/101/54 200/129/54
f 203/130/54 204/131/54 190/132/54 189/128/54
f 200/129/54 201/133/54 79/115/74 58/110/70
f 213/127/54 214/116/75 203/130/54 189/128/54
f 202/134/54 203/130/54 214/116/75 79/115/74
f 201/133/54 202/134/54 79/115/74
f 181/135/51 175/54/33 82/53/32 42/136/48
f 74/137/80 254/138/81 261/139/81 127/140/82
f 42/136/48 82/53/32 176/60/35 172/141/52
f 208/142/83 52/143/84 174/144/84 232/145/85
f 122/146/69 120/68/40 85/67/39 68/147/60
f 68/147/60 85/67/39 179/70/41 207/148/61
f 210/149/63 180/74/43 89/73/42 73/150/65
f 32/151/86 88/152/86 231/153/86 178/154/86
f 73/150/65 89/73/42 121/80/45 123/155/67
f 211/156/87 75/157/88 233/158/89 216/159/87
f 156/160/90 142/161/90 191/162/90 205/163/90
f 135/164/91 3/165/92 43/166/92 184/167/91
f 81/168/93 41/169/93 43/166/92
f 20/170/94 60/171/94 69/172/95 29/173/95
f 69/172/95 67/174/96 84/175/96
f 66/176/97 65/177/98 25/178/98 26/179/97
f 65/177/98 64/180/99 24/181/99 25/178/98
f 64/180/99 63/182/100 23/183/100 24/181/99
f 63/182/100 62/184/101 22/185/101 23/183/100
f 62/184/101 61/186/102 21/187/102 22/185/101
f 61/186/102 60/171/94 20/170/94 21/187/102
f 45/188/103 46/189/104 6/190/104 5/191/103
f 46/189/104 47/192/105 7/193/105 6/190/104
f 47/192/105 48/194/106 8/195/106 7/193/105
f 48/194/106 49/196/107 9/197/107 8/195/106
f 49/196/107 50/198/108 10/199/108 9/197/107
f 50/198/108 51/200/109 11/201/109 10/199/108
f 43/166/92 3/165/92 81/168/93
f 3/165/92 1/202/93 81/168/93
f 84/175/96 27/203/96 29/173/95
f 29/173/95 69/172/95 84/175/96
f 219/204/110 224/205/111 93/206/112
f 97/207/113 221/208/114 93/206/112 224/205/111
f 221/208/114 97/207/113 170/209/115 222/210/115
f 38/211/116 148/212/116 223/213/116 98/214/116
f 15/215/117 36/216/118 94/217/119 95/218/117
f 36/216/118 14/37/29 220/40/31 94/217/119
f 13/219/120 37/29/24 96/32/26 92/220/120
f 227/221/121 226/222/122 103/223/123 230/224/124
f 226/222/122 101/225/125 105/226/126 103/223/123
f 101/225/125 102/227/127 106/228/128 105/226/126
f 108/229/129 230/224/124 103/223/123 107/230/130
f 107/230/130 103/223/123 105/226/126 109/231/131
f 109/231/131 105/226/126 106/228/128 217/232/132
f 161/233/133 31/81/46 99/82/47 228/234/133
f 83/76/44 12/235/44 100/236/44 104/77/44
f 88/152/86 72/237/86 110/238/86 231/153/86
f 75/157/88 208/142/83 232/145/85 233/158/89
f 234/239/134 236/240/135 113/241/136
f 114/242/137 113/241/136 236/240/135 111/243/138
f 111/243/138 112/244/139 242/245/139 114/242/137
f 54/246/140 76/111/71 237/114/73 87/247/141
f 77/124/78 193/248/142 235/249/142 240/125/79
f 78/250/77 80/123/77 241/126/77 115/251/77
f 53/252/143 54/246/140 87/247/141 91/253/143
f 244/254/144 246/255/144 117/79/21 116/65/23
f 249/256/144 247/257/144 120/68/40 121/80/45
f 247/257/144 244/254/144 116/65/23 120/68/40
f 246/255/144 249/256/144 121/80/45 117/79/21
f 251/258/144 253/259/144 121/80/45 120/68/40
f 257/260/144 255/261/144 122/146/69 123/155/67
f 255/261/144 251/258/144 120/68/40 122/146/69
f 253/259/144 257/260/144 123/155/67 121/80/45
f 264/262/144 260/263/144 258/264/144 262/265/144
f 256/266/145 74/137/80 127/140/82 263/267/145
f 252/268/34 70/269/34 126/270/34 259/271/34
f 119/272/54 118/273/54 124/274/54 125/275/54
f 267/276/144 265/277/144 268/278/144 270/279/144
f 34/280/146 30/281/147 128/282/147 129/283/148
f 250/284/81 34/280/146 129/283/148 271/285/81
f 86/286/7 90/287/7 131/288/7 130/289/7
