# Blender v2.90.0 OBJ File: 'crap.blend'
# www.blender.org
mtllib carWheel.mtl
o Circle.004_Circle.002
v -0.187629 0.170104 0.500000
v -0.175589 0.240874 0.500000
v -0.137383 0.301651 0.500000
v -0.078826 0.343179 0.500000
v -0.008835 0.359139 0.500000
v 0.061936 0.347098 0.500000
v 0.122712 0.308892 0.500000
v 0.164241 0.250336 0.500000
v 0.180200 0.180344 0.500000
v 0.168160 0.109574 0.500000
v 0.129953 0.048798 0.500000
v 0.071397 0.007269 0.500000
v 0.001406 -0.008691 0.500000
v -0.069365 0.003350 0.500000
v -0.130141 0.041556 0.500000
v -0.171670 0.100112 0.500000
v -0.164343 0.172604 0.529475
v -0.153831 0.234395 0.529475
v -0.120472 0.287459 0.529475
v -0.069346 0.323718 0.529475
v -0.008237 0.337652 0.529475
v 0.053554 0.327139 0.529475
v 0.106618 0.293781 0.529475
v 0.142877 0.242655 0.529475
v 0.156811 0.181545 0.529475
v 0.146299 0.119755 0.529475
v 0.112940 0.066691 0.529475
v 0.061815 0.030432 0.529475
v 0.000705 0.016498 0.529475
v -0.061086 0.027010 0.529475
v -0.114150 0.060368 0.529475
v -0.150409 0.111494 0.529475
v -0.128729 0.173596 0.529475
v -0.120549 0.221682 0.529475
v -0.094589 0.262977 0.529475
v -0.054802 0.291195 0.529475
v -0.007245 0.302038 0.529475
v 0.040841 0.293857 0.529475
v 0.082137 0.267897 0.529475
v 0.110354 0.228111 0.529475
v 0.121198 0.180554 0.529475
v 0.113017 0.132468 0.529475
v 0.087057 0.091172 0.529475
v 0.047270 0.062955 0.529475
v -0.000287 0.052111 0.529475
v -0.048373 0.060292 0.529475
v -0.089668 0.086252 0.529475
v -0.117886 0.126039 0.529475
v -0.098886 0.174426 0.509475
v -0.092659 0.211029 0.509475
v -0.072899 0.242462 0.509475
v -0.042614 0.263941 0.509475
v -0.006414 0.272195 0.509475
v 0.030188 0.265968 0.509475
v 0.061621 0.246207 0.509475
v 0.083100 0.215922 0.509475
v 0.091354 0.179723 0.509475
v 0.085127 0.143121 0.509475
v 0.065367 0.111687 0.509475
v 0.035081 0.090209 0.509475
v -0.001118 0.081955 0.509475
v -0.037720 0.088182 0.509475
v -0.069154 0.107942 0.509475
v -0.090632 0.138227 0.509475
v -0.107938 0.066936 0.509475
v -0.113905 0.281247 0.509475
v 0.100406 0.287214 0.509475
v 0.106373 0.072903 0.509475
v -0.187629 0.170104 -0.500000
v -0.175589 0.240874 -0.500000
v -0.137383 0.301651 -0.500000
v -0.078826 0.343179 -0.500000
v -0.008835 0.359139 -0.500000
v 0.061936 0.347098 -0.500000
v 0.122712 0.308892 -0.500000
v 0.164241 0.250336 -0.500000
v 0.180200 0.180344 -0.500000
v 0.168160 0.109574 -0.500000
v 0.129953 0.048798 -0.500000
v 0.071397 0.007269 -0.500000
v 0.001406 -0.008691 -0.500000
v -0.069365 0.003350 -0.500000
v -0.130141 0.041556 -0.500000
v -0.171670 0.100112 -0.500000
v -0.187629 0.170104 -0.000000
v -0.175589 0.240874 -0.000000
v -0.137383 0.301651 -0.000000
v -0.078826 0.343179 -0.000000
v -0.008835 0.359139 -0.000000
v 0.061936 0.347098 -0.000000
v 0.122712 0.308892 -0.000000
v 0.164241 0.250336 -0.000000
v 0.180200 0.180344 -0.000000
v 0.168160 0.109574 -0.000000
v 0.129953 0.048798 -0.000000
v 0.071397 0.007269 -0.000000
v 0.001406 -0.008691 -0.000000
v -0.069365 0.003350 -0.000000
v -0.130141 0.041556 -0.000000
v -0.171670 0.100112 -0.000000
v -0.164343 0.172604 -0.529475
v -0.153831 0.234395 -0.529475
v -0.120472 0.287459 -0.529475
v -0.069346 0.323718 -0.529475
v -0.008237 0.337652 -0.529475
v 0.053554 0.327139 -0.529475
v 0.106618 0.293781 -0.529475
v 0.142877 0.242655 -0.529475
v 0.156811 0.181545 -0.529475
v 0.146299 0.119755 -0.529475
v 0.112940 0.066691 -0.529475
v 0.061815 0.030432 -0.529475
v 0.000705 0.016498 -0.529475
v -0.061086 0.027010 -0.529475
v -0.114150 0.060368 -0.529475
v -0.150409 0.111494 -0.529475
v -0.128729 0.173596 -0.529475
v -0.120549 0.221682 -0.529475
v -0.094589 0.262977 -0.529475
v -0.054802 0.291195 -0.529475
v -0.007245 0.302038 -0.529475
v 0.040841 0.293857 -0.529475
v 0.082137 0.267897 -0.529475
v 0.110354 0.228111 -0.529475
v 0.121198 0.180554 -0.529475
v 0.113017 0.132468 -0.529475
v 0.087057 0.091172 -0.529475
v 0.047270 0.062955 -0.529475
v -0.000287 0.052111 -0.529475
v -0.048373 0.060292 -0.529475
v -0.089668 0.086252 -0.529475
v -0.117886 0.126039 -0.529475
v -0.098886 0.174426 -0.509475
v -0.092659 0.211029 -0.509475
v -0.072899 0.242462 -0.509475
v -0.042614 0.263941 -0.509475
v -0.006414 0.272195 -0.509475
v 0.030188 0.265968 -0.509475
v 0.061621 0.246207 -0.509475
v 0.083100 0.215922 -0.509475
v 0.091354 0.179723 -0.509475
v 0.085127 0.143121 -0.509475
v 0.065367 0.111687 -0.509475
v 0.035081 0.090209 -0.509475
v -0.001118 0.081955 -0.509475
v -0.037720 0.088182 -0.509475
v -0.069154 0.107942 -0.509475
v -0.090632 0.138227 -0.509475
v -0.107938 0.066936 -0.509475
v -0.113905 0.281247 -0.509475
v 0.100406 0.287214 -0.509475
v 0.106373 0.072903 -0.509475
vt 0.792167 0.813154
vt 0.792167 0.786133
vt 0.795169 0.786133
vt 0.795169 0.813154
vt 0.827360 0.813154
vt 0.827360 0.786133
vt 0.830165 0.786133
vt 0.830165 0.813154
vt 0.797974 0.786133
vt 0.797974 0.813154
vt 0.832347 0.786133
vt 0.832347 0.813154
vt 0.800156 0.786133
vt 0.800156 0.813154
vt 0.757235 0.813154
vt 0.757235 0.786133
vt 0.759976 0.786133
vt 0.759976 0.813154
vt 0.818875 0.759113
vt 0.818875 0.786133
vt 0.815873 0.786133
vt 0.815873 0.759113
vt 0.821617 0.759113
vt 0.821617 0.786133
vt 0.762978 0.786133
vt 0.762978 0.813154
vt 0.813068 0.786133
vt 0.813068 0.759113
vt 0.765783 0.786133
vt 0.765783 0.813154
vt 0.810886 0.786133
vt 0.810886 0.759113
vt 0.767965 0.786133
vt 0.767965 0.813154
vt 0.821617 0.813154
vt 0.821617 0.786133
vt 0.824358 0.786133
vt 0.824358 0.813154
vt 0.789426 0.813154
vt 0.789426 0.786133
vt 0.795022 0.814747
vt 0.792401 0.814747
vt 0.829628 0.814747
vt 0.827179 0.814747
vt 0.797472 0.814747
vt 0.809784 0.817836
vt 0.808957 0.818439
vt 0.807103 0.816043
vt 0.807661 0.815093
vt 0.796986 0.828884
vt 0.797782 0.828085
vt 0.799636 0.830480
vt 0.799109 0.831627
vt 0.760118 0.814747
vt 0.757724 0.814747
vt 0.815962 0.757520
vt 0.818582 0.757520
vt 0.820976 0.757520
vt 0.762739 0.814747
vt 0.813512 0.757520
vt 0.765188 0.814747
vt 0.811607 0.757520
vt 0.807661 0.831627
vt 0.807103 0.830480
vt 0.808957 0.828085
vt 0.809784 0.828884
vt 0.824558 0.814747
vt 0.822164 0.814747
vt 0.790008 0.814747
vt 0.797782 0.818439
vt 0.799022 0.819508
vt 0.798241 0.821944
vt 0.796779 0.821568
vt 0.807718 0.827015
vt 0.808499 0.824580
vt 0.809961 0.824955
vt 0.799636 0.816043
vt 0.800464 0.817644
vt 0.806275 0.828879
vt 0.802059 0.814747
vt 0.802350 0.816636
vt 0.804681 0.831776
vt 0.804390 0.829888
vt 0.804681 0.814747
vt 0.804390 0.816636
vt 0.802059 0.831776
vt 0.802350 0.829888
vt 0.806275 0.817644
vt 0.800464 0.828879
vt 0.807718 0.819508
vt 0.799022 0.827015
vt 0.809961 0.821568
vt 0.808499 0.821944
vt 0.798241 0.824580
vt 0.796779 0.824955
vt 0.806680 0.820405
vt 0.805581 0.818986
vt 0.800060 0.826119
vt 0.801158 0.827537
vt 0.807274 0.822258
vt 0.799466 0.822258
vt 0.799466 0.824265
vt 0.807274 0.824265
vt 0.800060 0.820405
vt 0.806680 0.826119
vt 0.801158 0.818986
vt 0.805581 0.827537
vt 0.802593 0.818218
vt 0.804146 0.828305
vt 0.804146 0.818218
vt 0.802593 0.828305
vt 0.513358 0.780612
vt 0.504389 0.780612
vt 0.504389 0.769026
vt 0.513358 0.769026
vt 0.792167 0.759113
vt 0.795169 0.759113
vt 0.827360 0.759113
vt 0.830165 0.759113
vt 0.797974 0.759113
vt 0.832347 0.759113
vt 0.800156 0.759113
vt 0.757235 0.759113
vt 0.759976 0.759113
vt 0.818875 0.813154
vt 0.815873 0.813154
vt 0.821617 0.813154
vt 0.762978 0.759113
vt 0.813068 0.813154
vt 0.765783 0.759113
vt 0.810886 0.813154
vt 0.767965 0.759113
vt 0.821617 0.759113
vt 0.824358 0.759113
vt 0.789426 0.759113
vt 0.792401 0.757520
vt 0.795022 0.757520
vt 0.827179 0.757520
vt 0.829628 0.757520
vt 0.797472 0.757520
vt 0.796603 0.828687
vt 0.794479 0.831431
vt 0.793922 0.830480
vt 0.795776 0.828085
vt 0.783804 0.817640
vt 0.785927 0.814896
vt 0.786455 0.816043
vt 0.784601 0.818439
vt 0.757724 0.757520
vt 0.760118 0.757520
vt 0.818582 0.814747
vt 0.815962 0.814747
vt 0.820976 0.814747
vt 0.762738 0.757520
vt 0.813512 0.814747
vt 0.765188 0.757520
vt 0.811607 0.814747
vt 0.794479 0.814896
vt 0.796603 0.817640
vt 0.795776 0.818439
vt 0.793922 0.816043
vt 0.822164 0.757520
vt 0.824558 0.757520
vt 0.790008 0.757520
vt 0.784601 0.828085
vt 0.783598 0.824955
vt 0.785059 0.824580
vt 0.785840 0.827015
vt 0.796779 0.821568
vt 0.795317 0.821944
vt 0.794536 0.819508
vt 0.786455 0.830480
vt 0.787283 0.828879
vt 0.793094 0.817644
vt 0.788877 0.831776
vt 0.789168 0.829888
vt 0.791499 0.814747
vt 0.791209 0.816636
vt 0.791499 0.831776
vt 0.791209 0.829888
vt 0.788877 0.814747
vt 0.789168 0.816636
vt 0.793094 0.828879
vt 0.787283 0.817644
vt 0.794536 0.827015
vt 0.785840 0.819508
vt 0.796779 0.824955
vt 0.795317 0.824580
vt 0.783598 0.821568
vt 0.785059 0.821944
vt 0.792400 0.827537
vt 0.793498 0.826119
vt 0.787977 0.818986
vt 0.786879 0.820405
vt 0.794092 0.824265
vt 0.786284 0.822258
vt 0.786284 0.824265
vt 0.794092 0.822258
vt 0.786879 0.826119
vt 0.793498 0.820405
vt 0.787977 0.827537
vt 0.792400 0.818986
vt 0.789412 0.828305
vt 0.790965 0.818218
vt 0.790965 0.828305
vt 0.789412 0.818218
vt 0.533922 0.779320
vt 0.533922 0.767734
vt 0.542890 0.767734
vt 0.542890 0.779320
vn -0.0262 0.9425 -0.3331
vn -0.0278 0.9996 0.0000
vn 0.3568 0.9342 0.0000
vn 0.3358 0.8815 -0.3319
vn -0.3411 -0.8907 -0.3005
vn -0.3568 -0.9342 0.0000
vn -0.6871 -0.7265 0.0000
vn -0.6557 -0.6909 -0.3044
vn 0.6871 0.7265 0.0000
vn 0.6479 0.6872 -0.3284
vn -0.9129 -0.4082 0.0000
vn -0.8687 -0.3862 -0.3102
vn 0.9129 0.4082 0.0000
vn 0.8631 0.3881 -0.3232
vn -0.9996 -0.0278 0.0000
vn -0.9482 -0.0242 -0.3168
vn 0.9481 0.0286 -0.3168
vn 0.9996 0.0278 0.0000
vn 0.9342 -0.3568 0.0000
vn 0.8888 -0.3373 -0.3102
vn -0.9342 0.3568 0.0000
vn -0.8833 0.3395 -0.3232
vn 0.7265 -0.6871 0.0000
vn 0.6931 -0.6533 -0.3044
vn -0.7265 0.6871 0.0000
vn -0.6852 0.6501 -0.3284
vn 0.4082 -0.9129 0.0000
vn 0.3902 -0.8703 -0.3005
vn -0.4082 0.9129 0.0000
vn -0.3844 0.8614 -0.3319
vn 0.0278 -0.9996 0.0000
vn 0.0266 -0.9539 -0.2991
vn 0.1656 0.4302 -0.8874
vn -0.0128 0.4595 -0.8881
vn -0.3352 -0.3580 -0.8715
vn -0.1752 -0.4624 -0.8692
vn 0.3210 0.3362 -0.8854
vn -0.4410 -0.2006 -0.8748
vn 0.4308 0.1894 -0.8823
vn -0.4772 -0.0166 -0.8786
vn 0.4515 -0.1758 -0.8748
vn 0.4774 0.0100 -0.8786
vn -0.4407 0.1651 -0.8823
vn 0.3546 -0.3388 -0.8715
vn -0.3392 0.3178 -0.8854
vn 0.2006 -0.4519 -0.8692
vn -0.1893 0.4203 -0.8874
vn 0.0138 -0.4957 -0.8684
vn -0.1867 0.1765 -0.9664
vn -0.2400 0.0916 -0.9664
vn 0.1867 -0.1765 -0.9664
vn 0.2400 -0.0916 -0.9664
vn -0.1049 0.2345 -0.9664
vn 0.1049 -0.2345 -0.9664
vn -0.0071 0.2568 -0.9664
vn 0.0071 -0.2568 -0.9664
vn 0.0916 0.2400 -0.9664
vn -0.0916 -0.2400 -0.9664
vn 0.1765 0.1867 -0.9664
vn -0.1765 -0.1867 -0.9664
vn 0.2345 0.1049 -0.9664
vn -0.2345 -0.1049 -0.9664
vn 0.2568 0.0071 -0.9664
vn -0.2568 -0.0071 -0.9664
vn 0.5080 0.2272 -0.8308
vn 0.3824 0.4043 -0.8308
vn -0.5080 -0.2272 -0.8308
vn -0.3824 -0.4043 -0.8308
vn 0.5563 0.0155 -0.8308
vn -0.5199 0.1986 -0.8308
vn -0.5563 -0.0155 -0.8308
vn 0.5199 -0.1986 -0.8308
vn -0.4043 0.3824 -0.8308
vn 0.4043 -0.3824 -0.8308
vn -0.2272 0.5080 -0.8308
vn 0.2272 -0.5080 -0.8308
vn -0.0155 0.5563 -0.8308
vn 0.0155 -0.5563 -0.8308
vn 0.1986 0.5199 -0.8308
vn -0.1986 -0.5199 -0.8308
vn 0.0000 0.0000 -1.0000
vn -0.0262 0.9425 0.3331
vn 0.3358 0.8815 0.3319
vn -0.3411 -0.8907 0.3005
vn -0.6557 -0.6909 0.3044
vn 0.6479 0.6872 0.3284
vn -0.8687 -0.3862 0.3102
vn 0.8631 0.3881 0.3232
vn -0.9482 -0.0242 0.3168
vn 0.9481 0.0286 0.3168
vn 0.8888 -0.3373 0.3102
vn -0.8833 0.3395 0.3232
vn 0.6931 -0.6533 0.3044
vn -0.6852 0.6501 0.3284
vn 0.3902 -0.8703 0.3005
vn -0.3844 0.8614 0.3319
vn 0.0266 -0.9539 0.2991
vn -0.0128 0.4595 0.8881
vn 0.1656 0.4302 0.8874
vn -0.1752 -0.4624 0.8692
vn -0.3352 -0.3580 0.8715
vn 0.3210 0.3362 0.8854
vn -0.4410 -0.2006 0.8748
vn 0.4308 0.1894 0.8823
vn -0.4772 -0.0166 0.8786
vn 0.4774 0.0100 0.8786
vn 0.4514 -0.1758 0.8748
vn -0.4407 0.1651 0.8823
vn 0.3546 -0.3388 0.8715
vn -0.3392 0.3178 0.8854
vn 0.2006 -0.4519 0.8692
vn -0.1893 0.4203 0.8874
vn 0.0138 -0.4957 0.8684
vn -0.2400 0.0916 0.9664
vn -0.1867 0.1765 0.9664
vn 0.2400 -0.0916 0.9664
vn 0.1867 -0.1765 0.9664
vn -0.1049 0.2345 0.9664
vn 0.1049 -0.2345 0.9664
vn -0.0071 0.2568 0.9664
vn 0.0071 -0.2568 0.9664
vn 0.0916 0.2400 0.9664
vn -0.0916 -0.2400 0.9664
vn 0.1765 0.1867 0.9664
vn -0.1765 -0.1867 0.9664
vn 0.2345 0.1049 0.9664
vn -0.2345 -0.1049 0.9664
vn 0.2568 0.0071 0.9664
vn -0.2568 -0.0071 0.9664
vn 0.3824 0.4043 0.8308
vn 0.5080 0.2272 0.8308
vn -0.3824 -0.4043 0.8308
vn -0.5080 -0.2272 0.8308
vn 0.5563 0.0155 0.8308
vn -0.5563 -0.0155 0.8308
vn -0.5199 0.1986 0.8308
vn 0.5199 -0.1986 0.8308
vn -0.4043 0.3824 0.8308
vn 0.4043 -0.3824 0.8308
vn -0.2272 0.5080 0.8308
vn 0.2272 -0.5080 0.8308
vn -0.0155 0.5563 0.8308
vn 0.0155 -0.5563 0.8308
vn 0.1986 0.5199 0.8308
vn -0.1986 -0.5199 0.8308
vn 0.0000 0.0000 1.0000
usemtl Atlus
s 1
f 13/1/1 97/2/2 98/3/3 14/4/4
f 6/5/5 90/6/6 91/7/7 7/8/8
f 14/4/4 98/3/3 99/9/9 15/10/10
f 7/8/8 91/7/7 92/11/11 8/12/12
f 15/10/10 99/9/9 100/13/13 16/14/14
f 8/15/12 92/16/11 93/17/15 9/18/16
f 1/19/17 85/20/18 86/21/19 2/22/20
f 16/23/14 100/24/13 85/20/18 1/19/17
f 9/18/16 93/17/15 94/25/21 10/26/22
f 2/22/20 86/21/19 87/27/23 3/28/24
f 10/26/22 94/25/21 95/29/25 11/30/26
f 3/28/24 87/27/23 88/31/27 4/32/28
f 11/30/26 95/29/25 96/33/29 12/34/30
f 4/35/28 88/36/27 89/37/31 5/38/32
f 12/39/30 96/40/29 97/2/2 13/1/1
f 5/38/32 89/37/31 90/6/6 6/5/5
f 14/4/4 30/41/33 29/42/34 13/1/1
f 7/8/8 23/43/35 22/44/36 6/5/5
f 15/10/10 31/45/37 30/41/33 14/4/4
f 8/46/12 24/47/38 23/48/35 7/49/8
f 16/50/14 32/51/39 31/52/37 15/53/10
f 9/18/16 25/54/40 24/55/38 8/15/12
f 2/22/20 18/56/41 17/57/42 1/19/17
f 1/19/17 17/57/42 32/58/39 16/23/14
f 10/26/22 26/59/43 25/54/40 9/18/16
f 3/28/24 19/60/44 18/56/41 2/22/20
f 11/30/26 27/61/45 26/59/43 10/26/22
f 4/32/28 20/62/46 19/60/44 3/28/24
f 12/63/30 28/64/47 27/65/45 11/66/26
f 5/38/32 21/67/48 20/68/46 4/35/28
f 13/1/1 29/42/34 28/69/47 12/39/30
f 6/5/5 22/44/36 21/67/48 5/38/32
f 19/70/44 35/71/49 34/72/50 18/73/41
f 27/65/45 43/74/51 42/75/52 26/76/43
f 20/77/46 36/78/53 35/71/49 19/70/44
f 28/64/47 44/79/54 43/74/51 27/65/45
f 21/80/48 37/81/55 36/78/53 20/77/46
f 29/82/34 45/83/56 44/79/54 28/64/47
f 22/84/36 38/85/57 37/81/55 21/80/48
f 30/86/33 46/87/58 45/83/56 29/82/34
f 23/48/35 39/88/59 38/85/57 22/84/36
f 31/52/37 47/89/60 46/87/58 30/86/33
f 24/47/38 40/90/61 39/88/59 23/48/35
f 32/51/39 48/91/62 47/89/60 31/52/37
f 25/92/40 41/93/63 40/90/61 24/47/38
f 18/73/41 34/72/50 33/94/64 17/95/42
f 17/95/42 33/94/64 48/91/62 32/51/39
f 26/76/43 42/75/52 41/93/63 25/92/40
f 40/90/61 56/96/65 55/97/66 39/88/59
f 48/91/62 64/98/67 63/99/68 47/89/60
f 41/93/63 57/100/69 56/96/65 40/90/61
f 34/72/50 50/101/70 49/102/71 33/94/64
f 33/94/64 49/102/71 64/98/67 48/91/62
f 42/75/52 58/103/72 57/100/69 41/93/63
f 35/71/49 51/104/73 50/101/70 34/72/50
f 43/74/51 59/105/74 58/103/72 42/75/52
f 36/78/53 52/106/75 51/104/73 35/71/49
f 44/79/54 60/107/76 59/105/74 43/74/51
f 37/81/55 53/108/77 52/106/75 36/78/53
f 45/83/56 61/109/78 60/107/76 44/79/54
f 38/85/57 54/110/79 53/108/77 37/81/55
f 46/87/58 62/111/80 61/109/78 45/83/56
f 39/88/59 55/97/66 54/110/79 38/85/57
f 47/89/60 63/99/68 62/111/80 46/87/58
f 65/112/81 66/113/81 67/114/81 68/115/81
f 81/116/82 82/117/83 98/3/3 97/2/2
f 74/118/84 75/119/85 91/7/7 90/6/6
f 82/117/83 83/120/86 99/9/9 98/3/3
f 75/119/85 76/121/87 92/11/11 91/7/7
f 83/120/86 84/122/88 100/13/13 99/9/9
f 76/123/87 77/124/89 93/17/15 92/16/11
f 69/125/90 70/126/91 86/21/19 85/20/18
f 84/127/88 69/125/90 85/20/18 100/24/13
f 77/124/89 78/128/92 94/25/21 93/17/15
f 70/126/91 71/129/93 87/27/23 86/21/19
f 78/128/92 79/130/94 95/29/25 94/25/21
f 71/129/93 72/131/95 88/31/27 87/27/23
f 79/130/94 80/132/96 96/33/29 95/29/25
f 72/133/95 73/134/97 89/37/31 88/36/27
f 80/135/96 81/116/82 97/2/2 96/40/29
f 73/134/97 74/118/84 90/6/6 89/37/31
f 82/117/83 81/116/82 113/136/98 114/137/99
f 75/119/85 74/118/84 106/138/100 107/139/101
f 83/120/86 82/117/83 114/137/99 115/140/102
f 76/141/87 75/142/85 107/143/101 108/144/103
f 84/145/88 83/146/86 115/147/102 116/148/104
f 77/124/89 76/123/87 108/149/103 109/150/105
f 70/126/91 69/125/90 101/151/106 102/152/107
f 69/125/90 84/127/88 116/153/104 101/151/106
f 78/128/92 77/124/89 109/150/105 110/154/108
f 71/129/93 70/126/91 102/152/107 103/155/109
f 79/130/94 78/128/92 110/154/108 111/156/110
f 72/131/95 71/129/93 103/155/109 104/157/111
f 80/158/96 79/159/94 111/160/110 112/161/112
f 73/134/97 72/133/95 104/162/111 105/163/113
f 81/116/82 80/135/96 112/164/112 113/136/98
f 74/118/84 73/134/97 105/163/113 106/138/100
f 103/165/109 102/166/107 118/167/114 119/168/115
f 111/160/110 110/169/108 126/170/116 127/171/117
f 104/172/111 103/165/109 119/168/115 120/173/118
f 112/161/112 111/160/110 127/171/117 128/174/119
f 105/175/113 104/172/111 120/173/118 121/176/120
f 113/177/98 112/161/112 128/174/119 129/178/121
f 106/179/100 105/175/113 121/176/120 122/180/122
f 114/181/99 113/177/98 129/178/121 130/182/123
f 107/143/101 106/179/100 122/180/122 123/183/124
f 115/147/102 114/181/99 130/182/123 131/184/125
f 108/144/103 107/143/101 123/183/124 124/185/126
f 116/148/104 115/147/102 131/184/125 132/186/127
f 109/187/105 108/144/103 124/185/126 125/188/128
f 102/166/107 101/189/106 117/190/129 118/167/114
f 101/189/106 116/148/104 132/186/127 117/190/129
f 110/169/108 109/187/105 125/188/128 126/170/116
f 124/185/126 123/183/124 139/191/130 140/192/131
f 132/186/127 131/184/125 147/193/132 148/194/133
f 125/188/128 124/185/126 140/192/131 141/195/134
f 118/167/114 117/190/129 133/196/135 134/197/136
f 117/190/129 132/186/127 148/194/133 133/196/135
f 126/170/116 125/188/128 141/195/134 142/198/137
f 119/168/115 118/167/114 134/197/136 135/199/138
f 127/171/117 126/170/116 142/198/137 143/200/139
f 120/173/118 119/168/115 135/199/138 136/201/140
f 128/174/119 127/171/117 143/200/139 144/202/141
f 121/176/120 120/173/118 136/201/140 137/203/142
f 129/178/121 128/174/119 144/202/141 145/204/143
f 122/180/122 121/176/120 137/203/142 138/205/144
f 130/182/123 129/178/121 145/204/143 146/206/145
f 123/183/124 122/180/122 138/205/144 139/191/130
f 131/184/125 130/182/123 146/206/145 147/193/132
f 149/207/146 152/208/146 151/209/146 150/210/146
