# Blender v2.90.0 OBJ File: 'crap.blend'
# www.blender.org
mtllib cliff.mtl
o Plane.016_Plane.056
v 0.300000 0.000000 -0.500000
v 0.500000 0.000000 -0.300000
v 0.441421 0.000000 -0.441421
v -0.500000 0.000000 -0.300000
v -0.300000 0.000000 -0.500000
v -0.441421 0.000000 -0.441421
v 0.500000 0.000000 0.300000
v 0.300000 0.000000 0.500000
v 0.441421 0.000000 0.441421
v -0.300000 0.000000 0.500000
v -0.500000 0.000000 0.300000
v -0.441421 0.000000 0.441421
v 0.500000 2.000000 -0.300000
v 0.300000 2.000000 -0.500000
v 0.441421 2.000000 -0.441421
v -0.300000 2.000000 -0.500000
v -0.500000 2.000000 -0.300000
v -0.441421 2.000000 -0.441421
v 0.300000 2.000000 0.500000
v 0.500000 2.000000 0.300000
v 0.441421 2.000000 0.441421
v -0.500000 2.000000 0.300000
v -0.300000 2.000000 0.500000
v -0.441421 2.000000 0.441421
v -0.500000 2.000000 -0.300000
v -0.441421 2.000000 -0.441421
v -0.300000 2.000000 -0.500000
v 0.441421 2.000000 -0.441421
v 0.500000 2.000000 -0.300000
v 0.300000 2.000000 -0.500000
v -0.300000 2.000000 0.500000
v -0.441421 2.000000 0.441421
v -0.500000 2.000000 0.300000
v 0.441421 2.000000 0.441421
v 0.300000 2.000000 0.500000
v 0.500000 2.000000 0.300000
vt 0.060545 0.383647
vt 0.090764 0.383647
vt 0.090764 0.484377
vt 0.060545 0.484377
vt 0.060545 0.383647
vt 0.090764 0.383647
vt 0.090764 0.484377
vt 0.060545 0.484377
vt 0.090764 0.383647
vt 0.060545 0.383647
vt 0.060545 0.484377
vt 0.090764 0.484377
vt 0.050472 0.449122
vt 0.050472 0.418903
vt 0.060545 0.408830
vt 0.090764 0.459195
vt 0.090764 0.408830
vt 0.053422 0.484377
vt 0.053422 0.383647
vt 0.097887 0.383647
vt 0.097887 0.484377
vt 0.060545 0.484377
vt 0.060545 0.383647
vt 0.053422 0.383647
vt 0.053422 0.484377
vt 0.097887 0.484377
vt 0.097887 0.383647
vt 0.053422 0.383647
vt 0.053422 0.484377
vt 0.097887 0.484377
vt 0.097887 0.383647
vt 0.090764 0.383647
vt 0.090764 0.484377
vt 0.053422 0.411780
vt 0.097887 0.411780
vt 0.100837 0.418903
vt 0.100837 0.449122
vt 0.097887 0.456245
vt 0.060545 0.459195
vt 0.053422 0.456245
vn 0.1951 0.0000 -0.9808
vn -0.1951 0.0000 -0.9808
vn -0.9808 0.0000 -0.1951
vn -0.9808 0.0000 0.1951
vn -0.1951 0.0000 0.9808
vn 0.1951 0.0000 0.9808
vn 0.0000 1.0000 0.0000
vn -0.7071 0.0000 -0.7071
vn 0.9808 0.0000 -0.1951
vn 0.7071 0.0000 -0.7071
vn -0.7071 0.0000 0.7071
vn 0.7071 0.0000 0.7071
vn 0.9808 0.0000 0.1951
usemtl Atlus
s 1
f 1/1/1 5/2/2 27/3/2 30/4/1
f 4/5/3 11/6/4 33/7/4 25/8/3
f 10/9/5 8/10/6 35/11/6 31/12/5
f 20/13/7 13/14/7 14/15/7
f 23/16/7 20/13/7 16/17/7
f 4/5/3 25/8/3 26/18/8 6/19/8
f 6/20/8 26/21/8 27/3/2 5/2/2
f 29/22/9 2/23/9 3/24/10 28/25/10
f 28/25/10 3/24/10 1/1/1 30/4/1
f 10/9/5 31/12/5 32/26/11 12/27/11
f 12/27/11 32/26/11 33/7/4 11/6/4
f 35/11/6 8/10/6 9/28/12 34/29/12
f 34/30/12 9/31/12 7/32/13 36/33/13
f 7/32/13 2/23/9 29/22/9 36/33/13
f 13/14/7 15/34/7 14/15/7
f 14/15/7 16/17/7 20/13/7
f 16/17/7 18/35/7 17/36/7
f 17/36/7 22/37/7 23/16/7
f 22/37/7 24/38/7 23/16/7
f 23/16/7 19/39/7 20/13/7
f 19/39/7 21/40/7 20/13/7
f 16/17/7 17/36/7 23/16/7
