# Blender v2.90.0 OBJ File: ''
# www.blender.org
mtllib particle.mtl
o Icosphere
v 0.000000 -0.200000 -0.000000
v 0.144720 -0.089443 0.105144
v -0.055277 -0.089443 0.170128
v -0.178885 -0.089443 -0.000000
v -0.055277 -0.089443 -0.170128
v 0.144720 -0.089443 -0.105144
v 0.055277 0.089443 0.170128
v -0.144720 0.089443 0.105144
v -0.144720 0.089443 -0.105144
v 0.055277 0.089443 -0.170128
v 0.178885 0.089443 -0.000000
v 0.000000 0.200000 -0.000000
vt 0.500000 0.500000
vt 0.861800 0.237140
vt 0.361807 0.074680
vt 0.861800 0.762860
vt 0.052788 0.500000
vt 0.361807 0.925320
vt 0.237140 0.276393
vt 0.762860 0.276393
vt 0.500000 0.723607
vt 0.361807 0.276393
vt 0.861800 0.276393
vt 0.638193 0.723607
vt 0.500000 0.276393
vt 0.074680 0.276393
vt 0.237140 0.723607
vt 0.925320 0.276393
vt 0.762860 0.723607
vt 0.861800 0.276393
vt 0.361807 0.276393
vt 0.638193 0.723607
vt 0.074680 0.723607
vt 0.138200 0.723607
vt 0.138200 0.723607
vt 0.925320 0.723607
vt 0.638193 0.074680
vt 0.947212 0.500000
vt 0.500000 0.500000
vt 0.138200 0.237140
vt 0.138200 0.762860
vt 0.638193 0.925320
vn 0.0000 -1.0000 0.0000
vn 0.7236 -0.4472 0.5257
vn -0.2764 -0.4472 0.8506
vn 0.7236 -0.4472 -0.5257
vn -0.8944 -0.4472 0.0000
vn -0.2764 -0.4472 -0.8506
vn 0.8944 0.4472 0.0000
vn 0.2764 0.4472 0.8506
vn -0.7236 0.4472 0.5257
vn -0.7236 0.4472 -0.5257
vn 0.2764 0.4472 -0.8506
vn 0.0000 1.0000 0.0000
usemtl None
s 1
f 1/1/1 2/2/2 3/3/3
f 2/2/2 1/1/1 6/4/4
f 1/1/1 3/3/3 4/5/5
f 1/1/1 4/5/5 5/6/6
f 1/1/1 5/6/6 6/4/4
f 2/7/2 6/8/4 11/9/7
f 3/10/3 2/11/2 7/12/8
f 4/13/5 3/14/3 8/15/9
f 5/16/6 4/13/5 9/17/10
f 6/18/4 5/19/6 10/20/11
f 2/7/2 11/9/7 7/21/8
f 3/10/3 7/12/8 8/22/9
f 4/13/5 8/15/9 9/17/10
f 5/19/6 9/23/10 10/20/11
f 6/8/4 10/24/11 11/9/7
f 7/25/8 11/26/7 12/27/12
f 8/28/9 7/25/8 12/27/12
f 9/29/10 8/28/9 12/27/12
f 10/30/11 9/29/10 12/27/12
f 11/26/7 10/30/11 12/27/12
