# Blender v2.90.0 OBJ File: ''
# www.blender.org
mtllib tempPlayer.mtl
o Circle
v -0.000000 0.000000 0.500000
v 0.353553 0.000000 0.353553
v 0.500000 0.000000 -0.000000
v 0.353553 0.000000 -0.353553
v -0.000000 0.000000 -0.500000
v -0.353553 0.000000 -0.353553
v -0.500000 0.000000 0.000000
v -0.353553 0.000000 0.353553
v -0.000000 0.100000 0.500000
v 0.353553 0.100000 0.353553
v 0.500000 0.100000 -0.000000
v 0.353553 0.100000 -0.353553
v -0.000000 0.100000 -0.500000
v -0.353553 0.100000 -0.353553
v -0.500000 0.100000 0.000000
v -0.353553 0.100000 0.353553
v -0.000000 0.100000 0.150000
v 0.106066 0.100000 0.106066
v 0.150000 0.100000 -0.000000
v 0.106066 0.100000 -0.106066
v -0.000000 0.100000 -0.150000
v -0.106066 0.100000 -0.106066
v -0.150000 0.100000 0.000000
v -0.106066 0.100000 0.106066
v -0.000000 0.446535 0.150000
v 0.106066 0.446535 0.106066
v 0.150000 0.446535 -0.000000
v 0.106066 0.446535 -0.106066
v -0.000000 0.446535 -0.150000
v -0.106066 0.446535 -0.106066
v -0.150000 0.446535 0.000000
v -0.106066 0.446535 0.106066
v 0.000000 1.200000 0.480000
v 0.339411 1.200000 0.339411
v 0.480000 1.200000 -0.000000
v 0.339411 1.200000 -0.339411
v -0.000000 1.200000 -0.480000
v -0.339411 1.200000 -0.339411
v -0.480000 1.200000 0.000000
v -0.339411 1.200000 0.339411
v 0.000000 1.400000 0.480000
v 0.339411 1.400000 0.339411
v 0.480000 1.400000 -0.000000
v 0.339411 1.400000 -0.339411
v -0.000000 1.400000 -0.480000
v -0.339411 1.400000 -0.339411
v -0.480000 1.400000 0.000000
v -0.339411 1.400000 0.339411
v 0.000000 1.600000 0.386559
v 0.273339 1.600000 0.273339
v 0.386559 1.600000 -0.000000
v 0.273339 1.600000 -0.273339
v -0.000000 1.600000 -0.386559
v -0.273339 1.600000 -0.273339
v -0.386559 1.600000 0.000000
v -0.273339 1.600000 0.273339
v 0.000000 1.727838 0.115379
v 0.081585 1.727838 0.081585
v 0.115379 1.727838 -0.000000
v 0.081585 1.727838 -0.081585
v 0.000000 1.727838 -0.115379
v -0.081585 1.727838 -0.081585
v -0.115379 1.727838 0.000000
v -0.081585 1.727838 0.081585
v 0.353553 0.100000 0.353553
v -0.000000 0.100000 0.500000
v 0.500000 0.100000 -0.000000
v 0.353553 0.100000 -0.353553
v -0.000000 0.100000 -0.500000
v -0.353553 0.100000 -0.353553
v -0.500000 0.100000 0.000000
v -0.353553 0.100000 0.353553
v 0.106066 0.100000 0.106066
v -0.000000 0.100000 0.150000
v 0.150000 0.100000 -0.000000
v 0.106066 0.100000 -0.106066
v -0.000000 0.100000 -0.150000
v -0.106066 0.100000 -0.106066
v -0.150000 0.100000 0.000000
v -0.106066 0.100000 0.106066
vt 0.787948 0.057928
vt 0.787948 0.139372
vt 0.500000 0.139372
vt 0.500000 0.057928
vt 0.787948 0.057928
vt 0.787948 0.139372
vt 0.500000 0.139372
vt 0.500000 0.057928
vt 0.212052 0.057928
vt 0.212052 0.139372
vt 0.500000 0.139372
vt 0.500000 0.057928
vt 0.212052 0.057928
vt 0.212052 0.139372
vt 0.500000 0.139372
vt 0.500000 0.057928
vt 0.212052 0.139372
vt 0.212052 0.057928
vt 0.787948 0.139372
vt 0.787948 0.057928
vt 0.212052 0.787948
vt 0.413616 0.586384
vt 0.500000 0.622166
vt 0.500000 0.907220
vt 0.586384 0.586384
vt 0.787948 0.787948
vt 0.907220 0.500000
vt 0.622166 0.500000
vt 0.586384 0.413616
vt 0.787948 0.212052
vt 0.500000 0.092780
vt 0.500000 0.377834
vt 0.413616 0.413616
vt 0.212052 0.212052
vt 0.092780 0.500000
vt 0.377834 0.500000
vt 0.586384 0.139372
vt 0.586384 0.421603
vt 0.500000 0.421603
vt 0.500000 0.139372
vt 0.586384 0.139372
vt 0.586384 0.421603
vt 0.500000 0.421603
vt 0.500000 0.139372
vt 0.413616 0.139372
vt 0.413616 0.421603
vt 0.500000 0.421603
vt 0.500000 0.139372
vt 0.413616 0.139372
vt 0.413616 0.421603
vt 0.500000 0.421603
vt 0.500000 0.139372
vt 0.413616 0.421603
vt 0.413616 0.139372
vt 0.586384 0.421603
vt 0.586384 0.139372
vt 0.534154 0.367183
vt 0.569268 0.924885
vt 0.845698 0.924885
vt 0.620538 0.367183
vt 0.620538 0.367183
vt 0.845698 0.924885
vt 0.569268 0.924885
vt 0.534154 0.367183
vt 0.620538 0.367183
vt 0.845698 0.924885
vt 0.569268 0.924885
vt 0.534154 0.367183
vt 0.379462 0.367183
vt 0.154302 0.924885
vt 0.430732 0.924885
vt 0.465846 0.367183
vt 0.379462 0.367183
vt 0.154302 0.924885
vt 0.430732 0.924885
vt 0.465846 0.367183
vt 0.534154 0.367183
vt 0.569268 0.924885
vt 0.465846 0.367183
vt 0.430732 0.924885
vt 0.154302 0.924885
vt 0.379462 0.367183
vt 0.465846 0.367183
vt 0.430732 0.924885
vt 0.500000 1.035256
vt 0.500000 1.198144
vt 0.776430 1.198144
vt 0.776430 1.035256
vt 0.500000 1.035256
vt 0.500000 1.198144
vt 0.223570 1.198144
vt 0.223570 1.035256
vt 0.500000 1.035256
vt 0.500000 1.198144
vt 0.223570 1.198144
vt 0.223570 1.035256
vt 0.500000 1.035256
vt 0.500000 1.198143
vt 0.776430 1.198143
vt 0.776430 1.035256
vt 0.776430 1.035255
vt 0.776430 1.198144
vt 0.223570 1.035255
vt 0.223570 1.198144
vt 0.280271 1.134189
vt 0.334083 1.297077
vt 0.556701 1.297077
vt 0.556701 1.134189
vt 0.280271 1.134189
vt 0.334083 1.297077
vt 0.556701 1.297077
vt 0.556701 1.134189
vt 0.443299 1.134189
vt 0.443299 1.297077
vt 0.665917 1.297077
vt 0.719729 1.134189
vt 0.556701 1.134189
vt 0.556701 1.297076
vt 0.334083 1.297077
vt 0.280271 1.134189
vt 0.556701 1.134189
vt 0.556701 1.297077
vt 0.443299 1.134189
vt 0.443299 1.297077
vt 0.665917 1.297077
vt 0.719729 1.134189
vt 0.443299 1.297077
vt 0.443299 1.134189
vt 0.719729 1.134189
vt 0.665917 1.297077
vt 0.443299 1.297077
vt 0.443299 1.134189
vt 0.570305 0.659528
vt 0.414134 0.503356
vt 0.441656 0.436910
vt 0.662516 0.436910
vt 0.659528 0.429695
vt 0.503356 0.585866
vt 0.436910 0.558343
vt 0.436910 0.337483
vt 0.429695 0.340472
vt 0.585866 0.496644
vt 0.558343 0.563090
vt 0.337483 0.563090
vt 0.340472 0.570305
vt 0.496644 0.414134
vt 0.563090 0.441657
vt 0.563090 0.662517
vt 0.436910 0.662517
vt 0.436910 0.441656
vt 0.503356 0.414134
vt 0.659528 0.570305
vt 0.662516 0.563090
vt 0.441656 0.563090
vt 0.414134 0.496644
vt 0.570305 0.340472
vt 0.563090 0.337483
vt 0.563090 0.558344
vt 0.496644 0.585866
vt 0.340472 0.429695
vt 0.337483 0.436910
vt 0.558343 0.436910
vt 0.585866 0.503356
vt 0.429695 0.659528
vt 0.433554 0.566446
vt 0.406031 0.500000
vt 0.433554 0.433554
vt 0.500000 0.406031
vt 0.566446 0.433554
vt 0.593969 0.500000
vt 0.566446 0.566446
vt 0.500000 0.593969
vn -0.7071 0.0000 0.7071
vn -1.0000 0.0000 0.0000
vn -0.7071 0.0000 -0.7071
vn 0.0000 0.0000 -1.0000
vn 0.7071 0.0000 -0.7071
vn 1.0000 0.0000 0.0000
vn 0.7071 0.0000 0.7071
vn 0.0000 0.0000 1.0000
vn 0.0000 1.0000 0.0000
vn -0.6905 -0.2157 0.6905
vn -0.9764 -0.2157 0.0000
vn -0.6905 -0.2157 -0.6905
vn 0.0000 -0.2157 -0.9764
vn 0.6905 -0.2157 -0.6905
vn 0.9764 -0.2157 0.0000
vn 0.6905 -0.2157 0.6905
vn 0.0000 -0.2157 0.9764
vn 0.9807 -0.1956 0.0000
vn 0.6934 -0.1956 0.6934
vn -0.6934 -0.1956 0.6934
vn -0.9807 -0.1956 0.0000
vn -0.6934 -0.1956 -0.6934
vn 0.0000 -0.1956 -0.9807
vn 0.6934 -0.1956 -0.6934
vn 0.0000 -0.1956 0.9807
vn 0.0000 0.2064 0.9785
vn -0.6919 0.2064 0.6919
vn -0.9785 0.2064 0.0000
vn -0.6919 0.2064 -0.6919
vn 0.0000 0.2064 -0.9785
vn 0.6919 0.2064 -0.6919
vn 0.9785 0.2064 0.0000
vn 0.6919 0.2064 0.6919
vn 0.5272 0.6664 -0.5272
vn 0.7455 0.6664 0.0000
vn 0.5272 0.6664 0.5272
vn 0.0000 0.6664 0.7455
vn -0.5272 0.6664 0.5272
vn -0.7455 0.6664 0.0000
vn -0.5272 0.6664 -0.5272
vn 0.0000 0.6664 -0.7455
vn -0.1903 0.9631 0.1903
vn -0.2691 0.9631 0.0000
vn -0.1903 0.9631 -0.1903
vn 0.0000 0.9631 -0.2691
vn 0.1903 0.9631 -0.1903
vn 0.2691 0.9631 0.0000
vn 0.1903 0.9631 0.1903
vn 0.0000 0.9631 0.2691
usemtl None
s 1
f 8/1/1 72/2/1 71/3/2 7/4/2
f 6/5/3 70/6/3 69/7/4 5/8/4
f 4/9/5 68/10/5 67/11/6 3/12/6
f 2/13/7 65/14/7 66/15/8 1/16/8
f 1/16/8 66/15/8 72/2/1 8/1/1
f 7/4/2 71/3/2 70/17/3 6/18/3
f 5/8/4 69/7/4 68/10/5 4/9/5
f 3/12/6 67/11/6 65/19/7 2/20/7
f 10/21/9 73/22/9 74/23/9 9/24/9
f 9/24/9 74/23/9 80/25/9 16/26/9
f 15/27/9 79/28/9 78/29/9 14/30/9
f 13/31/9 77/32/9 76/33/9 12/34/9
f 11/35/9 75/36/9 73/22/9 10/21/9
f 16/26/9 80/25/9 79/28/9 15/27/9
f 14/30/9 78/29/9 77/32/9 13/31/9
f 12/34/9 76/33/9 75/36/9 11/35/9
f 24/37/1 32/38/10 31/39/11 23/40/2
f 22/41/3 30/42/12 29/43/13 21/44/4
f 20/45/5 28/46/14 27/47/15 19/48/6
f 18/49/7 26/50/16 25/51/17 17/52/8
f 17/52/8 25/51/17 32/38/10 24/37/1
f 23/40/2 31/39/11 30/53/12 22/54/3
f 21/44/4 29/43/13 28/46/14 20/45/5
f 19/48/6 27/47/15 26/55/16 18/56/7
f 27/57/15 35/58/18 34/59/19 26/60/16
f 32/61/10 40/62/20 39/63/21 31/64/11
f 30/65/12 38/66/22 37/67/23 29/68/13
f 28/69/14 36/70/24 35/71/18 27/72/15
f 26/73/16 34/74/19 33/75/25 25/76/17
f 25/77/17 33/78/25 40/62/20 32/61/10
f 31/79/11 39/80/21 38/81/22 30/82/12
f 29/83/13 37/84/23 36/70/24 28/69/14
f 33/85/25 41/86/26 48/87/27 40/88/20
f 39/89/21 47/90/28 46/91/29 38/92/22
f 37/93/23 45/94/30 44/95/31 36/96/24
f 35/97/18 43/98/32 42/99/33 34/100/19
f 40/88/20 48/87/27 47/90/28 39/89/21
f 38/101/22 46/102/29 45/94/30 37/93/23
f 36/96/24 44/95/31 43/98/32 35/97/18
f 34/103/19 42/104/33 41/86/26 33/85/25
f 44/105/31 52/106/34 51/107/35 43/108/32
f 42/109/33 50/110/36 49/111/37 41/112/26
f 41/113/26 49/114/37 56/115/38 48/116/27
f 47/117/28 55/118/39 54/119/40 46/120/29
f 45/121/30 53/122/41 52/106/34 44/105/31
f 43/123/32 51/124/35 50/125/36 42/126/33
f 48/116/27 56/115/38 55/127/39 47/128/28
f 46/129/29 54/130/40 53/131/41 45/132/30
f 56/133/38 64/134/42 63/135/43 55/136/39
f 54/137/40 62/138/44 61/139/45 53/140/41
f 52/141/34 60/142/46 59/143/47 51/144/35
f 50/145/36 58/146/48 57/147/49 49/148/37
f 49/149/37 57/150/49 64/151/42 56/152/38
f 55/153/39 63/154/43 62/155/44 54/156/40
f 53/157/41 61/158/45 60/159/46 52/160/34
f 51/161/35 59/162/47 58/163/48 50/164/36
f 58/165/48 59/166/47 60/167/46 61/168/45 62/169/44 63/170/43 64/171/42 57/172/49
