# Blender v2.90.0 OBJ File: ''
# www.blender.org
mtllib tree02.mtl
o BezierCurve
v 0.132895 2.000035 -0.000086
v 0.132966 1.999965 -0.000086
v 0.133001 1.999929 0.000000
v 0.132966 1.999965 0.000087
v 0.132895 2.000035 0.000087
v 0.132860 2.000071 0.000000
v -0.094259 1.477833 -0.049132
v -0.037734 1.472976 -0.049132
v -0.009472 1.470548 0.000000
v -0.037734 1.472976 0.049133
v -0.094259 1.477833 0.049133
v -0.122522 1.480262 0.000000
v 0.013402 0.766854 -0.098178
v 0.125847 0.781283 -0.098178
v 0.182069 0.788497 0.000000
v 0.125847 0.781283 0.098178
v 0.013402 0.766854 0.098179
v -0.042820 0.759640 0.000000
v 0.053636 -0.288999 -0.147224
v 0.223164 -0.301669 -0.147224
v 0.307927 -0.308004 0.000000
v 0.223164 -0.301669 0.147224
v 0.053636 -0.288999 0.147224
v -0.031127 -0.282664 0.000000
v -0.390887 1.159199 -0.420091
v -0.390789 1.159218 -0.420091
v -0.390743 1.159243 -0.420005
v -0.390795 1.159249 -0.419920
v -0.390893 1.159230 -0.419920
v -0.390939 1.159206 -0.420005
v -0.324046 0.957524 -0.366284
v -0.296542 0.975716 -0.371592
v -0.288217 1.000019 -0.350247
v -0.307395 1.006130 -0.323593
v -0.334898 0.987938 -0.318285
v -0.343224 0.963635 -0.339630
v -0.188694 0.845648 -0.244015
v -0.142636 0.889793 -0.263476
v -0.137855 0.948768 -0.232686
v -0.179131 0.963597 -0.182434
v -0.225189 0.919452 -0.162973
v -0.229970 0.860477 -0.193763
v 0.007691 0.693600 -0.060756
v 0.082228 0.755911 -0.084453
v 0.096724 0.839154 -0.030968
v 0.036682 0.860085 0.046212
v -0.037855 0.797774 0.069909
v -0.052351 0.714531 0.016425
v 0.331767 1.422715 -0.000086
v 0.331863 1.422689 -0.000086
v 0.331912 1.422676 0.000000
v 0.331863 1.422689 0.000087
v 0.331767 1.422715 0.000087
v 0.331718 1.422728 0.000000
v 0.251670 1.329908 -0.013968
v 0.261566 1.317172 -0.013968
v 0.266515 1.310804 0.000000
v 0.261566 1.317172 0.013968
v 0.251670 1.329908 0.013968
v 0.246721 1.336275 0.000000
v 0.116118 1.281716 -0.027849
v 0.128828 1.252177 -0.027849
v 0.135183 1.237407 0.000000
v 0.128828 1.252177 0.027849
v 0.116118 1.281716 0.027849
v 0.109763 1.296486 0.000000
v -0.058412 1.213742 -0.041730
v -0.034319 1.172011 -0.041730
v -0.022273 1.151146 0.000000
v -0.034319 1.172011 0.041731
v -0.058412 1.213742 0.041731
v -0.070458 1.234607 0.000000
v 0.087878 0.720229 0.532336
v 0.087978 0.720229 0.532336
v 0.088028 0.720206 0.532419
v 0.087978 0.720184 0.532503
v 0.087878 0.720184 0.532503
v 0.087828 0.720206 0.532419
v 0.069560 0.601516 0.424264
v 0.102956 0.601059 0.423958
v 0.119525 0.578840 0.442594
v 0.102699 0.557077 0.461537
v 0.069304 0.557534 0.461844
v 0.052734 0.579753 0.443207
v 0.049914 0.564147 0.262025
v 0.116606 0.563289 0.261498
v 0.149455 0.509975 0.284466
v 0.115612 0.457520 0.307960
v 0.048919 0.458379 0.308487
v 0.016070 0.511693 0.285520
v 0.032131 0.483210 0.010011
v 0.132127 0.482652 0.010661
v 0.181426 0.407374 0.054284
v 0.130727 0.332654 0.097256
v 0.030731 0.333212 0.096606
v -0.018567 0.408490 0.052984
v 0.132895 2.000035 -0.000086
v -0.094259 1.477833 -0.049132
v 0.132860 2.000071 0.000000
v -0.122522 1.480262 0.000000
v 0.132966 1.999965 -0.000086
v -0.037734 1.472976 -0.049132
v 0.133001 1.999929 0.000000
v -0.009472 1.470548 0.000000
v 0.132966 1.999965 0.000087
v -0.037734 1.472976 0.049133
v 0.132895 2.000035 0.000087
v -0.094259 1.477833 0.049133
v 0.013402 0.766854 -0.098178
v -0.042820 0.759640 0.000000
v 0.125847 0.781283 -0.098178
v 0.182069 0.788497 0.000000
v 0.125847 0.781283 0.098178
v 0.013402 0.766854 0.098179
v 0.053636 -0.288999 -0.147224
v -0.031127 -0.282664 0.000000
v 0.223164 -0.301669 -0.147224
v 0.307927 -0.308004 0.000000
v 0.223164 -0.301669 0.147224
v 0.053636 -0.288999 0.147224
v -0.390887 1.159199 -0.420091
v -0.324046 0.957524 -0.366284
v -0.324046 0.957524 -0.366284
v -0.343224 0.963635 -0.339630
v -0.343224 0.963635 -0.339630
v -0.390939 1.159206 -0.420005
v -0.390789 1.159218 -0.420091
v -0.296542 0.975716 -0.371592
v -0.390743 1.159243 -0.420005
v -0.288217 1.000019 -0.350247
v -0.288217 1.000019 -0.350247
v -0.390795 1.159249 -0.419920
v -0.307395 1.006130 -0.323593
v -0.307395 1.006130 -0.323593
v -0.390893 1.159230 -0.419920
v -0.334898 0.987938 -0.318285
v -0.188694 0.845648 -0.244015
v -0.229970 0.860477 -0.193763
v -0.142636 0.889793 -0.263476
v -0.137855 0.948768 -0.232686
v -0.179131 0.963597 -0.182434
v -0.225189 0.919452 -0.162973
v 0.007691 0.693600 -0.060756
v -0.052351 0.714531 0.016425
v 0.082228 0.755911 -0.084453
v 0.096724 0.839154 -0.030968
v 0.036682 0.860085 0.046212
v -0.037855 0.797774 0.069909
v 0.331767 1.422715 -0.000086
v 0.251670 1.329908 -0.013968
v 0.331718 1.422728 0.000000
v 0.246721 1.336275 0.000000
v 0.331863 1.422689 -0.000086
v 0.261566 1.317172 -0.013968
v 0.331912 1.422676 0.000000
v 0.266515 1.310804 0.000000
v 0.331863 1.422689 0.000087
v 0.261566 1.317172 0.013968
v 0.331767 1.422715 0.000087
v 0.251670 1.329908 0.013968
v 0.116118 1.281716 -0.027849
v 0.109763 1.296486 0.000000
v 0.128828 1.252177 -0.027849
v 0.135183 1.237407 0.000000
v 0.128828 1.252177 0.027849
v 0.116118 1.281716 0.027849
v -0.058412 1.213742 -0.041730
v -0.070458 1.234607 0.000000
v -0.034319 1.172011 -0.041730
v -0.022273 1.151146 0.000000
v -0.034319 1.172011 0.041731
v -0.058412 1.213742 0.041731
v 0.087878 0.720229 0.532336
v 0.069560 0.601516 0.424264
v 0.069560 0.601516 0.424264
v 0.087828 0.720206 0.532419
v 0.052734 0.579753 0.443207
v 0.087978 0.720229 0.532336
v 0.102956 0.601059 0.423958
v 0.102956 0.601059 0.423958
v 0.088028 0.720206 0.532419
v 0.119525 0.578840 0.442594
v 0.087978 0.720184 0.532503
v 0.102699 0.557077 0.461537
v 0.102699 0.557077 0.461537
v 0.087878 0.720184 0.532503
v 0.069304 0.557534 0.461844
v 0.069304 0.557534 0.461844
v 0.049914 0.564147 0.262025
v 0.016070 0.511693 0.285520
v 0.116606 0.563289 0.261498
v 0.149455 0.509975 0.284466
v 0.115612 0.457520 0.307960
v 0.048919 0.458379 0.308487
v 0.032131 0.483210 0.010011
v -0.018567 0.408490 0.052984
v 0.132127 0.482652 0.010661
v 0.181426 0.407374 0.054284
v 0.130727 0.332654 0.097256
v 0.030731 0.333212 0.096606
vt 0.490968 0.951013
vt 0.469718 0.724763
vt 0.491006 0.725815
vt 0.491006 0.951028
vt 0.450721 0.950982
vt 0.524679 0.722659
vt 0.549169 0.724763
vt 0.450752 0.951013
vt 0.491006 0.950967
vt 0.491006 0.721606
vt 0.469718 0.722659
vt 0.490968 0.950982
vt 0.491043 0.950982
vt 0.512293 0.722659
vt 0.491006 0.721606
vt 0.491006 0.950967
vt 0.450752 0.951013
vt 0.549169 0.724763
vt 0.524679 0.722659
vt 0.450721 0.950982
vt 0.491006 0.951028
vt 0.491006 0.725815
vt 0.512293 0.724763
vt 0.491043 0.951013
vt 0.448469 0.416723
vt 0.491006 0.413597
vt 0.453806 0.422974
vt 0.502524 0.416723
vt 0.491006 0.426100
vt 0.448469 0.422974
vt 0.533543 0.422974
vt 0.491006 0.426100
vt 0.502524 0.416723
vt 0.453806 0.422974
vt 0.491006 0.413597
vt 0.533543 0.416723
vt 0.427219 -0.040738
vt 0.491006 -0.037993
vt 0.411642 -0.046227
vt 0.485092 -0.040738
vt 0.491006 -0.048972
vt 0.427219 -0.046227
vt 0.554792 -0.046227
vt 0.491006 -0.048972
vt 0.485092 -0.040738
vt 0.411642 -0.046227
vt 0.491006 -0.037993
vt 0.554792 -0.040738
vt 0.308996 0.586711
vt 0.332309 0.499333
vt 0.343857 0.501981
vt 0.309033 0.586714
vt 0.677644 0.586719
vt 0.636811 0.507215
vt 0.648727 0.499333
vt 0.677686 0.586711
vt 0.309033 0.586730
vt 0.339257 0.517744
vt 0.330009 0.507215
vt 0.308996 0.586719
vt 0.309070 0.586733
vt 0.350805 0.520392
vt 0.339257 0.517744
vt 0.309033 0.586730
vt 0.677689 0.586725
vt 0.653429 0.512510
vt 0.641512 0.520392
vt 0.677646 0.586733
vt 0.309033 0.586714
vt 0.343857 0.501981
vt 0.353105 0.512510
vt 0.309070 0.586725
vt 0.648727 0.332309
vt 0.590084 0.385283
vt 0.607967 0.407055
vt 0.657036 0.343857
vt 0.570129 0.469988
vt 0.590084 0.450861
vt 0.633203 0.517744
vt 0.568057 0.495539
vt 0.570129 0.469988
vt 0.636811 0.507215
vt 0.641512 0.350805
vt 0.585941 0.411964
vt 0.568057 0.390192
vt 0.633203 0.339257
vt 0.653429 0.353105
vt 0.605896 0.420396
vt 0.585941 0.411964
vt 0.641512 0.350805
vt 0.407055 0.457286
vt 0.420396 0.482838
vt 0.504998 0.464682
vt 0.531012 0.498122
vt 0.472704 0.411982
vt 0.504998 0.384985
vt 0.390192 0.495539
vt 0.477588 0.448048
vt 0.454415 0.411982
vt 0.376852 0.469988
vt 0.492437 0.511028
vt 0.466423 0.477588
vt 0.524731 0.521294
vt 0.492437 0.511028
vt 0.498122 0.394054
vt 0.521294 0.430119
vt 0.490968 0.700882
vt 0.484954 0.660672
vt 0.491006 0.663431
vt 0.491006 0.700888
vt 0.364547 0.700871
vt 0.395004 0.655155
vt 0.399291 0.660672
vt 0.364588 0.700882
vt 0.491006 0.700866
vt 0.491006 0.652396
vt 0.484954 0.655155
vt 0.490968 0.700871
vt 0.491043 0.700871
vt 0.497057 0.655155
vt 0.491006 0.652396
vt 0.491006 0.700866
vt 0.364588 0.700882
vt 0.399291 0.660672
vt 0.395004 0.655155
vt 0.364547 0.700871
vt 0.491006 0.700888
vt 0.491006 0.663431
vt 0.497057 0.660672
vt 0.491043 0.700882
vt 0.399291 0.484954
vt 0.458021 0.478940
vt 0.460774 0.491006
vt 0.401435 0.491006
vt 0.452514 0.626995
vt 0.458021 0.639793
vt 0.392860 0.491006
vt 0.449761 0.491006
vt 0.452514 0.478940
vt 0.395004 0.484954
vt 0.395004 0.497057
vt 0.452514 0.503072
vt 0.449761 0.491006
vt 0.392860 0.491006
vt 0.458021 0.639793
vt 0.452514 0.626995
vt 0.401435 0.491006
vt 0.460774 0.491006
vt 0.458021 0.503072
vt 0.399291 0.497057
vt 0.533638 0.472925
vt 0.538857 0.491006
vt 0.523199 0.592262
vt 0.533638 0.610342
vt 0.517980 0.491006
vt 0.523199 0.472925
vt 0.523199 0.509086
vt 0.517980 0.491006
vt 0.533638 0.610342
vt 0.523199 0.592262
vt 0.538857 0.491006
vt 0.533638 0.509086
vt 0.721646 0.396522
vt 0.674823 0.345088
vt 0.683030 0.335660
vt 0.721682 0.396512
vt 0.470213 0.396522
vt 0.463723 0.344891
vt 0.478192 0.345088
vt 0.470256 0.396522
vt 0.721682 0.396512
vt 0.682764 0.335264
vt 0.674690 0.344891
vt 0.721646 0.396522
vt 0.721718 0.396503
vt 0.690972 0.325835
vt 0.682764 0.335264
vt 0.721682 0.396512
vt 0.470256 0.396503
vt 0.478304 0.326033
vt 0.463835 0.325835
vt 0.470213 0.396503
vt 0.721682 0.396512
vt 0.683030 0.335660
vt 0.691105 0.326033
vt 0.721718 0.396503
vt 0.604531 0.328898
vt 0.614710 0.306171
vt 0.463723 0.674690
vt 0.457809 0.604303
vt 0.486704 0.604531
vt 0.478192 0.674823
vt 0.614254 0.305427
vt 0.604303 0.328526
vt 0.624433 0.282701
vt 0.614254 0.305427
vt 0.478304 0.691105
vt 0.487135 0.624661
vt 0.458240 0.624433
vt 0.463835 0.690972
vt 0.614710 0.306171
vt 0.624661 0.283073
vt 0.495343 0.293831
vt 0.513961 0.261458
vt 0.451084 0.495625
vt 0.494409 0.495343
vt 0.514525 0.260974
vt 0.495625 0.293589
vt 0.533143 0.228601
vt 0.514525 0.260974
vt 0.495016 0.532861
vt 0.451691 0.533143
vt 0.513961 0.261458
vt 0.532861 0.228843
vn -0.7903 0.3883 -0.4738
vn -0.8532 0.1441 -0.5013
vn -0.8533 0.1434 -0.5013
vn 0.0078 0.0901 -0.9959
vn 0.0018 0.0793 -0.9968
vn 0.0017 0.0792 -0.9968
vn 0.8396 -0.2260 -0.4940
vn 0.8629 0.0106 -0.5052
vn 0.8629 0.0122 -0.5051
vn 0.8396 -0.2260 0.4940
vn 0.8629 0.0122 0.5051
vn 0.8629 0.0106 0.5052
vn 0.0078 0.0901 0.9959
vn 0.0017 0.0792 0.9968
vn 0.0018 0.0793 0.9968
vn -0.7903 0.3883 0.4738
vn -0.8533 0.1434 0.5013
vn -0.8532 0.1441 0.5013
vn -0.8654 -0.0519 -0.4983
vn -0.0020 0.0571 -0.9984
vn -0.0020 0.0572 -0.9984
vn 0.8535 0.1660 -0.4939
vn 0.8535 0.1660 0.4939
vn -0.0020 0.0572 0.9984
vn -0.0020 0.0571 0.9984
vn -0.8654 -0.0519 0.4983
vn -0.8670 -0.0098 -0.4981
vn -0.0003 0.0458 -0.9989
vn 0.8626 0.0995 -0.4959
vn 0.8626 0.0995 0.4959
vn -0.0003 0.0458 0.9989
vn -0.8670 -0.0098 0.4981
vn -0.7879 -0.3886 -0.4777
vn -0.0129 -0.2617 -0.9650
vn 0.1155 -0.4385 -0.8913
vn 0.1166 -0.4398 -0.8905
vn 0.7760 0.2450 -0.5812
vn 0.7150 0.2879 -0.6371
vn 0.7136 0.2887 -0.6382
vn 0.7019 0.6118 0.3648
vn -0.1427 0.4702 0.8709
vn -0.2870 0.6107 0.7380
vn -0.2846 0.6084 0.7408
vn -0.9089 -0.0517 0.4137
vn -0.8748 -0.1249 0.4680
vn -0.8754 -0.1239 0.4672
vn -0.5222 -0.8328 -0.1837
vn -0.5129 -0.8408 -0.1729
vn 0.2404 -0.5876 -0.7726
vn 0.6767 0.3085 -0.6684
vn 0.6767 0.3085 -0.6685
vn 0.3225 0.9465 -0.0042
vn 0.3569 0.9338 0.0241
vn -0.3811 0.6886 0.6169
vn -0.3810 0.6885 0.6170
vn -0.8251 -0.2006 0.5282
vn -0.5043 -0.8480 -0.1629
vn 0.2523 -0.5951 -0.7630
vn 0.6973 0.2930 -0.6541
vn 0.3877 0.9204 0.0500
vn -0.3628 0.6725 0.6450
vn -0.8132 -0.2111 0.5423
vn -0.6190 0.6086 -0.4964
vn -0.4346 0.7457 -0.5049
vn -0.4362 0.7448 -0.5050
vn 0.0902 0.0706 -0.9934
vn 0.0870 0.0572 -0.9945
vn 0.0870 0.0574 -0.9945
vn 0.7609 -0.4448 -0.4724
vn 0.6016 -0.6240 -0.4987
vn 0.6022 -0.6234 -0.4987
vn 0.7609 -0.4448 0.4724
vn 0.6022 -0.6234 0.4987
vn 0.6016 -0.6240 0.4987
vn 0.0902 0.0706 0.9934
vn 0.0870 0.0574 0.9945
vn 0.0870 0.0572 0.9945
vn -0.6190 0.6086 0.4964
vn -0.4362 0.7448 0.5050
vn -0.4346 0.7457 0.5049
vn -0.2640 0.8293 -0.4925
vn 0.0752 0.0396 -0.9964
vn 0.4195 -0.7588 -0.4983
vn 0.4195 -0.7588 0.4983
vn 0.0752 0.0396 0.9964
vn -0.2640 0.8293 0.4925
vn -0.2814 0.8218 -0.4953
vn 0.0668 0.0345 -0.9972
vn 0.4161 -0.7600 -0.4993
vn 0.4161 -0.7600 0.4993
vn 0.0668 0.0345 0.9972
vn -0.2814 0.8218 0.4953
vn -0.8630 0.4064 -0.3001
vn -0.8578 0.4876 -0.1621
vn -0.8575 0.4892 -0.1590
vn 0.0024 0.6730 -0.7396
vn 0.8680 0.3893 -0.3081
vn 0.8670 0.4663 -0.1757
vn 0.8672 0.4648 -0.1785
vn 0.8231 -0.1624 0.5441
vn 0.8517 -0.2903 0.4361
vn 0.8516 -0.2889 0.4374
vn 0.0029 -0.3987 0.9171
vn -0.8198 -0.1468 0.5535
vn -0.8504 -0.2658 0.4539
vn -0.8507 -0.2673 0.4526
vn -0.8445 0.5309 -0.0704
vn -0.8445 0.5309 -0.0703
vn 0.0109 0.9742 -0.2256
vn 0.0096 0.9633 -0.2681
vn 0.8564 0.5096 -0.0826
vn 0.8579 -0.4041 0.3171
vn -0.0065 -0.8393 0.5435
vn -0.0071 -0.8507 0.5256
vn -0.8636 -0.3818 0.3293
vn -0.8523 0.5129 -0.1027
vn 0.0083 0.9520 -0.3059
vn 0.8617 0.4966 -0.1041
vn 0.8589 -0.4119 0.3042
vn -0.0077 -0.8606 0.5092
vn -0.8662 -0.3949 0.3059
usemtl None
s 1
f 97/1/1 98/2/2 100/3/3 99/4/1
f 101/5/4 102/6/5 7/7/6 1/8/4
f 103/9/7 104/10/8 8/11/9 2/12/7
f 105/13/10 106/14/11 9/15/12 3/16/10
f 107/17/13 108/18/14 10/19/15 4/20/13
f 6/21/16 12/22/17 11/23/18 5/24/16
f 98/2/2 109/25/19 110/26/19 100/3/3
f 102/6/5 111/27/20 13/28/21 7/7/6
f 104/10/8 112/29/22 14/30/22 8/11/9
f 106/14/11 113/31/23 15/32/23 9/15/12
f 108/18/14 114/33/24 16/34/25 10/19/15
f 12/22/17 18/35/26 17/36/26 11/23/18
f 109/25/19 115/37/27 116/38/27 110/26/19
f 111/27/20 117/39/28 19/40/28 13/28/21
f 112/29/22 118/41/29 20/42/29 14/30/22
f 113/31/23 119/43/30 21/44/30 15/32/23
f 114/33/24 120/45/31 22/46/31 16/34/25
f 18/35/26 24/47/32 23/48/32 17/36/26
f 121/49/33 122/50/33 124/51/33 126/52/33
f 127/53/34 128/54/35 123/55/36 25/56/34
f 129/57/37 130/58/38 32/59/39 26/60/37
f 132/61/40 133/62/40 131/63/40 27/64/40
f 135/65/41 136/66/42 134/67/43 28/68/41
f 30/69/44 125/70/45 35/71/46 29/72/44
f 31/73/47 137/74/48 138/75/48 36/76/47
f 128/54/35 139/77/49 37/78/49 123/55/36
f 130/79/38 140/80/50 38/81/51 32/82/39
f 34/83/52 141/84/53 39/85/53 33/86/52
f 136/87/42 142/88/54 40/89/55 134/90/43
f 125/70/45 42/91/56 41/92/56 35/71/46
f 137/74/48 143/93/57 144/94/57 138/75/48
f 139/77/49 145/95/58 43/96/58 37/78/49
f 140/97/50 146/98/59 44/99/59 38/100/51
f 141/84/53 147/101/60 45/102/60 39/85/53
f 142/88/54 148/103/61 46/104/61 40/89/55
f 42/91/56 48/105/62 47/106/62 41/92/56
f 149/107/63 150/108/64 152/109/65 151/110/63
f 153/111/66 154/112/67 55/113/68 49/114/66
f 155/115/69 156/116/70 56/117/71 50/118/69
f 157/119/72 158/120/73 57/121/74 51/122/72
f 159/123/75 160/124/76 58/125/77 52/126/75
f 54/127/78 60/128/79 59/129/80 53/130/78
f 150/131/64 161/132/81 162/133/81 152/134/65
f 154/112/67 163/135/82 61/136/82 55/113/68
f 156/137/70 164/138/83 62/139/83 56/140/71
f 158/141/73 165/142/84 63/143/84 57/144/74
f 160/124/76 166/145/85 64/146/85 58/125/77
f 60/147/79 66/148/86 65/149/86 59/150/80
f 161/132/81 167/151/87 168/152/87 162/133/81
f 163/135/82 169/153/88 67/154/88 61/136/82
f 164/138/83 170/155/89 68/156/89 62/139/83
f 165/142/84 171/157/90 69/158/90 63/143/84
f 166/145/85 172/159/91 70/160/91 64/146/85
f 66/148/86 72/161/92 71/162/92 65/149/86
f 173/163/93 174/164/94 177/165/95 176/166/93
f 178/167/96 179/168/96 175/169/96 73/170/96
f 181/171/97 182/172/98 180/173/99 74/174/97
f 183/175/100 184/176/101 81/177/102 75/178/100
f 186/179/103 187/180/103 185/181/103 76/182/103
f 78/183/104 84/184/105 188/185/106 77/186/104
f 174/164/94 189/187/107 190/188/108 177/165/95
f 80/189/109 191/190/110 85/191/110 79/192/109
f 182/172/98 192/193/111 86/194/111 180/173/99
f 184/176/101 193/195/112 87/196/112 81/177/102
f 83/197/113 194/198/114 88/199/114 82/200/113
f 84/184/105 90/201/115 89/202/115 188/185/106
f 189/187/107 195/203/116 196/204/116 190/188/108
f 191/190/110 197/205/117 91/206/117 85/191/110
f 192/193/111 198/207/118 92/208/118 86/194/111
f 193/195/112 199/209/119 93/210/119 87/196/112
f 194/198/114 200/211/120 94/212/120 88/199/114
f 90/201/115 96/213/121 95/214/121 89/202/115
