# Blender v2.90.0 OBJ File: 'crap.blend'
# www.blender.org
mtllib weapon00.mtl
o BezierCurve.004_BezierCurve.003
v -1.297894 -0.346437 -0.029762
v -1.314155 -0.346437 0.015802
v -1.322286 -0.388334 0.038584
v -1.314155 -0.430232 0.015802
v -1.297894 -0.430232 -0.029762
v -1.289762 -0.388334 -0.052544
v -0.927484 -0.287789 0.022511
v -0.930826 -0.287789 0.098743
v -0.932497 -0.353291 0.136859
v -0.930826 -0.418793 0.098743
v -0.927484 -0.418793 0.022511
v -0.925813 -0.353291 -0.015606
v -0.536698 -0.399869 -0.048200
v -0.532231 -0.399869 0.009859
v -0.529997 -0.447470 0.038888
v -0.532231 -0.495070 0.009859
v -0.536698 -0.495070 -0.048200
v -0.538932 -0.447470 -0.077230
v -0.026024 -0.322832 -0.044798
v -0.026024 -0.322832 0.030837
v -0.026024 -0.388334 0.068655
v -0.026024 -0.453836 0.030837
v -0.026024 -0.453836 -0.044798
v -0.026024 -0.388334 -0.082615
v -1.373786 -0.327534 -0.078167
v -1.398778 -0.327534 -0.012559
v -1.411274 -0.388334 0.020245
v -1.398778 -0.449135 -0.012559
v -1.373786 -0.449135 -0.078167
v -1.361290 -0.388334 -0.110970
v -1.258647 -0.307475 -0.046699
v -1.291884 -0.307475 0.040553
v -1.308502 -0.388334 0.084179
v -1.291884 -0.469193 0.040553
v -1.258647 -0.469193 -0.046699
v -1.242029 -0.388334 -0.090325
v -1.297894 -0.346437 -0.029762
v -0.927484 -0.287789 0.022511
v -1.289762 -0.388334 -0.052544
v -0.925813 -0.353291 -0.015606
v -1.314155 -0.346437 0.015802
v -0.930826 -0.287789 0.098743
v -1.322286 -0.388334 0.038584
v -0.932497 -0.353291 0.136859
v -1.314155 -0.430232 0.015802
v -0.930826 -0.418793 0.098743
v -1.297894 -0.430232 -0.029762
v -0.927484 -0.418793 0.022511
v -0.536698 -0.399869 -0.048200
v -0.538932 -0.447470 -0.077230
v -0.532231 -0.399869 0.009859
v -0.529997 -0.447470 0.038888
v -0.532231 -0.495070 0.009859
v -0.536698 -0.495070 -0.048200
v -0.026024 -0.322832 -0.044798
v -0.026024 -0.322832 -0.044798
v -0.026024 -0.388334 -0.082615
v -0.026024 -0.388334 -0.082615
v -0.026024 -0.322832 0.030837
v -0.026024 -0.322832 0.030837
v -0.026024 -0.388334 0.068655
v -0.026024 -0.388334 0.068655
v -0.026024 -0.453836 0.030837
v -0.026024 -0.453836 0.030837
v -0.026024 -0.453836 -0.044798
v -0.026024 -0.453836 -0.044798
v -1.373786 -0.327534 -0.078167
v -1.373786 -0.327534 -0.078167
v -1.361290 -0.388334 -0.110970
v -1.361290 -0.388334 -0.110970
v -1.258647 -0.307475 -0.046699
v -1.258647 -0.307475 -0.046699
v -1.242029 -0.388334 -0.090325
v -1.242029 -0.388334 -0.090325
v -1.398778 -0.327534 -0.012559
v -1.398778 -0.327534 -0.012559
v -1.291884 -0.307475 0.040553
v -1.291884 -0.307475 0.040553
v -1.411274 -0.388334 0.020245
v -1.411274 -0.388334 0.020245
v -1.308502 -0.388334 0.084179
v -1.308502 -0.388334 0.084179
v -1.398778 -0.449135 -0.012559
v -1.398778 -0.449135 -0.012559
v -1.291884 -0.469193 0.040553
v -1.291884 -0.469193 0.040553
v -1.373786 -0.449135 -0.078167
v -1.373786 -0.449135 -0.078167
v -1.258647 -0.469193 -0.046699
v -1.258647 -0.469193 -0.046699
vt 0.847936 0.771366
vt 0.855255 0.772930
vt 0.844471 0.770322
vt 0.846944 0.769304
vt 0.849614 0.771316
vt 0.865768 0.772296
vt 0.855255 0.772930
vt 0.847936 0.771366
vt 0.850276 0.769205
vt 0.867174 0.768946
vt 0.865768 0.772296
vt 0.849614 0.771316
vt 0.849364 0.767139
vt 0.864654 0.765811
vt 0.867174 0.768946
vt 0.850276 0.769205
vt 0.847703 0.767187
vt 0.854455 0.766425
vt 0.864654 0.765811
vt 0.849364 0.767139
vt 0.846944 0.769304
vt 0.844471 0.770322
vt 0.854455 0.766425
vt 0.847703 0.767187
vt 0.801179 0.769769
vt 0.802405 0.767304
vt 0.765971 0.778656
vt 0.798417 0.769955
vt 0.801179 0.769769
vt 0.755457 0.779290
vt 0.767376 0.775307
vt 0.796883 0.767676
vt 0.798417 0.769955
vt 0.765971 0.778656
vt 0.764857 0.772172
vt 0.798075 0.765213
vt 0.796883 0.767676
vt 0.767376 0.775307
vt 0.754658 0.772786
vt 0.800877 0.765024
vt 0.798075 0.765213
vt 0.764857 0.772172
vt 0.802405 0.767304
vt 0.800877 0.765024
vt 0.799893 0.772435
vt 0.800388 0.769112
vt 0.798474 0.772552
vt 0.799893 0.772435
vt 0.797545 0.769348
vt 0.798474 0.772552
vt 0.798036 0.766025
vt 0.797545 0.769348
vt 0.799466 0.765907
vt 0.798036 0.766025
vt 0.800388 0.769112
vt 0.799466 0.765907
vt 0.846220 0.773695
vt 0.846821 0.774642
vt 0.843804 0.769285
vt 0.844573 0.769628
vt 0.848943 0.773638
vt 0.851711 0.774484
vt 0.846821 0.774642
vt 0.846220 0.773695
vt 0.849946 0.769518
vt 0.853316 0.768988
vt 0.851711 0.774484
vt 0.848943 0.773638
vt 0.848458 0.765440
vt 0.851013 0.763586
vt 0.853316 0.768988
vt 0.849946 0.769518
vt 0.845778 0.765495
vt 0.846263 0.763734
vt 0.851013 0.763586
vt 0.848458 0.765440
vt 0.844573 0.769628
vt 0.843804 0.769285
vt 0.846263 0.763734
vt 0.845778 0.765495
vt 0.844573 0.769628
vt 0.845778 0.765495
vt 0.848458 0.765440
vt 0.849946 0.769518
vt 0.848943 0.773638
vt 0.846220 0.773695
vt 0.843804 0.769285
vt 0.846821 0.774642
vt 0.851711 0.774484
vt 0.853316 0.768988
vt 0.851013 0.763586
vt 0.846263 0.763734
vt 0.800388 0.769112
vt 0.799893 0.772435
vt 0.798474 0.772552
vt 0.797545 0.769348
vt 0.798036 0.766025
vt 0.799466 0.765907
vn 0.0421 0.4957 -0.8675
vn 0.0173 0.5028 -0.8642
vn 0.0142 0.5037 -0.8637
vn -0.1495 0.9885 -0.0240
vn 0.0562 0.9983 -0.0138
vn 0.0705 0.9974 -0.0131
vn -0.2547 0.4945 0.8310
vn 0.0391 0.5111 0.8586
vn 0.0257 0.5113 0.8590
vn -0.1694 -0.4978 0.8506
vn -0.0326 -0.5078 0.8608
vn -0.0472 -0.5072 0.8605
vn 0.0295 -0.9995 0.0047
vn -0.0844 -0.9964 0.0031
vn -0.0768 -0.9970 0.0032
vn 0.1356 -0.4980 -0.8565
vn -0.0551 -0.5061 -0.8607
vn -0.0631 -0.5061 -0.8601
vn -0.0392 0.5098 -0.8594
vn -0.0413 0.5097 -0.8593
vn 0.0641 0.9979 0.0013
vn 0.0616 0.9981 0.0014
vn 0.0988 0.5068 0.8563
vn 0.1102 0.5063 0.8553
vn 0.0479 -0.5092 0.8593
vn 0.0506 -0.5092 0.8591
vn -0.0540 -0.9985 -0.0005
vn -0.0557 -0.9984 -0.0005
vn -0.1064 -0.5069 -0.8554
vn -0.0980 -0.5072 -0.8562
vn -0.0693 0.5086 -0.8582
vn -0.1499 0.9887 0.0050
vn -0.1110 0.5040 0.8565
vn 0.0073 -0.5089 0.8608
vn 0.0809 -0.9967 -0.0027
vn 0.0481 -0.5075 -0.8603
vn 0.1484 0.4930 -0.8573
vn -0.1556 0.9860 -0.0592
vn -0.4595 0.4930 0.7387
vn -0.4595 -0.4930 0.7387
vn -0.1556 -0.9860 -0.0592
vn 0.1484 -0.4930 -0.8573
vn -0.9345 0.0000 -0.3560
vn 0.9345 0.0000 0.3560
vn 1.0000 0.0000 0.0000
usemtl Atlus
s 1
f 37/1/1 38/2/2 40/3/3 39/4/1
f 41/5/4 42/6/5 7/7/6 1/8/4
f 43/9/7 44/10/8 8/11/9 2/12/7
f 45/13/10 46/14/11 9/15/12 3/16/10
f 47/17/13 48/18/14 10/19/15 4/20/13
f 6/21/16 12/22/17 11/23/18 5/24/16
f 38/2/2 49/25/19 50/26/20 40/3/3
f 42/27/5 51/28/21 13/29/22 7/30/6
f 44/31/8 52/32/23 14/33/24 8/34/9
f 46/35/11 53/36/25 15/37/26 9/38/12
f 48/39/14 54/40/27 16/41/28 10/42/15
f 12/22/17 18/43/29 17/44/30 11/23/18
f 49/25/19 55/45/31 57/46/31 50/26/20
f 51/28/21 59/47/32 56/48/32 13/29/22
f 52/32/23 61/49/33 60/50/33 14/33/24
f 53/36/25 63/51/34 62/52/34 15/37/26
f 54/40/27 65/53/35 64/54/35 16/41/28
f 18/43/29 58/55/36 66/56/36 17/44/30
f 67/57/37 71/58/37 73/59/37 69/60/37
f 75/61/38 77/62/38 72/63/38 68/64/38
f 79/65/39 81/66/39 78/67/39 76/68/39
f 83/69/40 85/70/40 82/71/40 80/72/40
f 87/73/41 89/74/41 86/75/41 84/76/41
f 70/77/42 74/78/42 90/79/42 88/80/42
f 30/81/43 29/82/43 28/83/43 27/84/43 26/85/43 25/86/43
f 36/87/44 31/88/44 32/89/44 33/90/44 34/91/44 35/92/44
f 24/93/45 19/94/45 20/95/45 21/96/45 22/97/45 23/98/45
